<?xml version="1.0" encoding="utf-8"?>
<!-- Generator: Adobe Illustrator 26.0.1, SVG Export Plug-In . SVG Version: 6.00 Build 0)  -->
<svg version="1.1" xmlns="http://www.w3.org/2000/svg" xmlns:xlink="http://www.w3.org/1999/xlink" x="0px" y="0px"
	 viewBox="0 0 500 500" style="enable-background:new 0 0 500 500;" xml:space="preserve">
<style type="text/css">
	.st0{fill:#F0F0F0;}
	.st1{fill:#E0E0E0;}
	.st2{fill:#E6E6E6;}
	.st3{display:none;}
	.st4{display:inline;}
	.st5{fill:#407BFF;}
	.st6{opacity:0.9;fill:#FFFFFF;}
	.st7{fill:#EBEBEB;}
	.st8{opacity:0.7;fill:#FFFFFF;}
	.st9{opacity:0.3;fill:#FFFFFF;}
	.st10{fill:none;stroke:#407BFF;stroke-linecap:round;stroke-linejoin:round;stroke-miterlimit:10;}
	.st11{fill:#FFFFFF;}
	.st12{fill:none;stroke:#407BFF;stroke-miterlimit:10;}
	.st13{opacity:0.4;}
	.st14{opacity:0.3;}
	.st15{opacity:0.2;fill:#FFFFFF;}
	.st16{opacity:0.5;fill:#FFFFFF;}
	.st17{fill:none;stroke:#263238;stroke-width:0.5;stroke-miterlimit:10;}
	.st18{opacity:0.6;fill:#FFFFFF;}
	.st19{opacity:0.6;fill:#263238;}
	.st20{fill:#F5F5F5;}
	.st21{fill:#263238;}
	.st22{opacity:0.2;fill:#FFFFFF;enable-background:new    ;}
	.st23{fill:none;stroke:#407BFF;stroke-width:0.25;stroke-miterlimit:10;}
	.st24{opacity:0.2;enable-background:new    ;}
	.st25{fill:#E9B376;}
	.st26{fill:none;stroke:#000000;stroke-width:0;stroke-linecap:round;stroke-linejoin:round;}
	.st27{fill:#D58745;}
	.st28{fill:none;stroke:#263238;stroke-width:0.5;stroke-linecap:round;stroke-linejoin:round;stroke-miterlimit:10;}
	.st29{opacity:0.2;fill:none;stroke:#000000;stroke-width:0.5;stroke-linecap:round;stroke-linejoin:round;stroke-miterlimit:10;}
	.st30{opacity:0.1;fill:none;stroke:#000000;stroke-width:0.5;stroke-linecap:round;stroke-linejoin:round;stroke-miterlimit:10;}
	.st31{fill:#B97964;}
	.st32{fill:#A24E3F;}
	.st33{opacity:0.3;fill:none;stroke:#000000;stroke-width:0.5;stroke-linecap:round;stroke-linejoin:round;stroke-miterlimit:10;}
	.st34{fill:none;stroke:#407BFF;stroke-width:0.5;stroke-linecap:round;stroke-linejoin:round;stroke-miterlimit:10;}
	.st35{opacity:0.4;enable-background:new    ;}
	.st36{opacity:0.3;fill:#FFFFFF;enable-background:new    ;}
	.st37{opacity:0.4;fill:#FFFFFF;enable-background:new    ;}
</style>
<g id="Background_complete">
	<path class="st0" d="M328.54,279.74c-0.83-4.02-2.43-7.76-4.61-11.08l3.97-4.79l-8.48-8.48l-4.79,3.97
		c-3.32-2.18-7.06-3.77-11.08-4.61l-0.58-6.18h-11.99l-0.58,6.18c-4.02,0.83-7.76,2.43-11.08,4.61l-4.79-3.97l-8.48,8.48l3.97,4.79
		c-2.18,3.32-3.77,7.06-4.61,11.08l-6.18,0.58v11.99l6.18,0.58c0.83,4.02,2.43,7.76,4.61,11.08l-3.97,4.79l8.48,8.48l4.79-3.97
		c3.32,2.18,7.06,3.77,11.08,4.61l0.58,6.18h11.99l0.58-6.18c4.02-0.83,7.76-2.43,11.08-4.61l4.79,3.97l8.48-8.48l-3.97-4.79
		c2.18-3.32,3.77-7.06,4.61-11.08l6.18-0.58v-11.99L328.54,279.74z M313.21,286.32c0,8.97-7.27,16.24-16.24,16.24
		c-8.97,0-16.24-7.27-16.24-16.24c0-8.97,7.27-16.24,16.24-16.24C305.94,270.08,313.21,277.35,313.21,286.32z"/>
	<path class="st0" d="M357.08,102.52c-1.1-5.32-3.21-10.26-6.09-14.65l5.24-6.34l-11.21-11.21l-6.34,5.24
		c-4.39-2.88-9.33-4.99-14.65-6.09l-0.77-8.17h-15.86l-0.77,8.17c-5.32,1.1-10.26,3.21-14.65,6.09l-6.34-5.24l-11.21,11.21
		l5.24,6.34c-2.88,4.39-4.99,9.33-6.09,14.65l-8.17,0.77v15.86l8.17,0.77c1.1,5.32,3.21,10.26,6.09,14.65l-5.24,6.34l11.21,11.21
		l6.34-5.25c4.39,2.88,9.33,4.99,14.65,6.09l0.77,8.17h15.86l0.77-8.17c5.32-1.1,10.26-3.21,14.65-6.09l6.34,5.25l11.21-11.21
		l-5.24-6.33c2.88-4.39,4.99-9.33,6.09-14.65l8.17-0.77v-15.86L357.08,102.52z M336.81,111.22c0,11.86-9.61,21.47-21.47,21.47
		c-11.86,0-21.47-9.61-21.47-21.47c0-11.86,9.61-21.47,21.47-21.47C327.2,89.75,336.81,99.36,336.81,111.22z"/>
	<path class="st0" d="M162.22,81.23c-0.61-2.95-1.78-5.69-3.38-8.13l2.91-3.52l-6.22-6.22l-3.52,2.91c-2.44-1.6-5.18-2.77-8.13-3.38
		l-0.43-4.53h-8.8l-0.43,4.53c-2.95,0.61-5.69,1.78-8.13,3.38l-3.52-2.91l-6.22,6.22l2.91,3.52c-1.6,2.44-2.77,5.18-3.38,8.13
		l-4.53,0.43v8.8l4.53,0.43c0.61,2.95,1.78,5.69,3.38,8.13l-2.91,3.52l6.22,6.22l3.52-2.91c2.44,1.6,5.18,2.77,8.13,3.38l0.43,4.53
		h8.8l0.43-4.53c2.95-0.61,5.69-1.78,8.13-3.38l3.52,2.91l6.22-6.22l-2.91-3.52c1.6-2.44,2.77-5.18,3.38-8.13l4.53-0.43v-8.8
		L162.22,81.23z M150.97,86.06c0,6.58-5.34,11.92-11.92,11.92c-6.58,0-11.92-5.34-11.92-11.92c0-6.58,5.34-11.92,11.92-11.92
		C145.63,74.14,150.97,79.47,150.97,86.06z"/>
	<path class="st0" d="M145.76,320.75c-0.28-1.35-0.82-2.61-1.55-3.72l1.33-1.61l-2.85-2.85l-1.61,1.33
		c-1.12-0.73-2.37-1.27-3.72-1.55l-0.2-2.08h-4.03l-0.2,2.08c-1.35,0.28-2.61,0.82-3.72,1.55l-1.61-1.33l-2.85,2.85l1.33,1.61
		c-0.73,1.12-1.27,2.37-1.55,3.72l-2.08,0.2v4.03l2.08,0.2c0.28,1.35,0.82,2.61,1.55,3.72l-1.33,1.61l2.85,2.85l1.61-1.33
		c1.12,0.73,2.37,1.27,3.72,1.55l0.2,2.08h4.03l0.2-2.08c1.35-0.28,2.61-0.82,3.72-1.55l1.61,1.33l2.85-2.85l-1.33-1.61
		c0.73-1.12,1.27-2.37,1.55-3.72l2.08-0.2v-4.03L145.76,320.75z M140.61,322.96c0,3.01-2.44,5.46-5.46,5.46s-5.46-2.44-5.46-5.46
		c0-3.01,2.44-5.46,5.46-5.46S140.61,319.94,140.61,322.96z"/>
	<path class="st0" d="M60.94,161.8c-0.28-1.35-0.82-2.61-1.55-3.72l1.33-1.61l-2.85-2.85l-1.61,1.33c-1.12-0.73-2.37-1.27-3.72-1.55
		l-0.2-2.08h-4.03l-0.2,2.08c-1.35,0.28-2.61,0.82-3.72,1.55l-1.61-1.33l-2.85,2.85l1.33,1.61c-0.73,1.12-1.27,2.37-1.55,3.72
		l-2.08,0.2v4.03l2.08,0.2c0.28,1.35,0.82,2.61,1.55,3.72l-1.33,1.61l2.85,2.85l1.61-1.33c1.12,0.73,2.37,1.27,3.72,1.55l0.2,2.08
		h4.03l0.2-2.08c1.35-0.28,2.61-0.82,3.72-1.55l1.61,1.33l2.85-2.85l-1.33-1.61c0.73-1.12,1.27-2.37,1.55-3.72l2.08-0.2V162
		L60.94,161.8z M55.79,164.01c0,3.01-2.44,5.46-5.46,5.46c-3.01,0-5.46-2.44-5.46-5.46c0-3.01,2.44-5.46,5.46-5.46
		C53.34,158.55,55.79,161,55.79,164.01z"/>
	<path class="st0" d="M444.96,102.99c-0.44-2.11-1.27-4.07-2.41-5.8l2.08-2.51l-4.44-4.44l-2.51,2.08c-1.74-1.14-3.7-1.98-5.8-2.41
		l-0.3-3.24h-6.28l-0.3,3.24c-2.11,0.44-4.07,1.27-5.8,2.41l-2.51-2.08l-4.44,4.44l2.08,2.51c-1.14,1.74-1.98,3.7-2.41,5.8
		l-3.24,0.31v6.28l3.24,0.31c0.44,2.11,1.27,4.06,2.41,5.8l-2.08,2.51l4.44,4.44l2.51-2.08c1.74,1.14,3.7,1.98,5.8,2.41l0.3,3.24
		h6.28l0.3-3.24c2.11-0.44,4.07-1.27,5.8-2.41l2.51,2.08l4.44-4.44l-2.08-2.51c1.14-1.74,1.98-3.7,2.41-5.8l3.24-0.31v-6.28
		L444.96,102.99z M436.93,106.44c0,4.7-3.81,8.51-8.51,8.51c-4.7,0-8.51-3.81-8.51-8.51c0-4.7,3.81-8.51,8.51-8.51
		C433.12,97.93,436.93,101.74,436.93,106.44z"/>
	<path class="st0" d="M396.22,72.06c-0.28-1.35-0.82-2.61-1.55-3.72l1.33-1.61l-2.85-2.85l-1.61,1.33
		c-1.12-0.73-2.37-1.27-3.72-1.55l-0.2-2.08h-4.03l-0.2,2.08c-1.35,0.28-2.61,0.82-3.72,1.55l-1.61-1.33l-2.85,2.85l1.33,1.61
		c-0.73,1.12-1.27,2.37-1.55,3.72l-2.08,0.2v4.03l2.08,0.2c0.28,1.35,0.82,2.61,1.55,3.72l-1.33,1.61l2.85,2.85l1.61-1.33
		c1.12,0.73,2.37,1.27,3.72,1.55l0.2,2.08h4.03l0.2-2.08c1.35-0.28,2.61-0.82,3.72-1.55l1.61,1.33l2.85-2.85l-1.33-1.61
		c0.73-1.12,1.27-2.37,1.55-3.72l2.08-0.2v-4.03L396.22,72.06z M391.06,74.27c0,3.01-2.44,5.46-5.46,5.46
		c-3.01,0-5.46-2.44-5.46-5.46c0-3.01,2.44-5.46,5.46-5.46C388.62,68.81,391.06,71.26,391.06,74.27z"/>
	<g>
		<g>
			<g>
				<g>
					<g>
						<path class="st1" d="M443.92,330.2H263.17c-3.23,0-5.86-2.63-5.86-5.86V61.06c0-3.23,2.63-5.86,5.86-5.86h180.75
							c3.23,0,5.86,2.63,5.86,5.86v263.27C449.78,327.57,447.15,330.2,443.92,330.2z M263.17,55.45c-3.09,0-5.61,2.52-5.61,5.61
							v263.27c0,3.09,2.52,5.61,5.61,5.61h180.75c3.09,0,5.61-2.52,5.61-5.61V61.06c0-3.09-2.52-5.61-5.61-5.61H263.17z"/>
					</g>
				</g>
				<g>
					<g>
						<path class="st1" d="M235.49,330.2H54.75c-3.23,0-5.86-2.63-5.86-5.86V61.06c0-3.23,2.63-5.86,5.86-5.86h180.75
							c3.23,0,5.86,2.63,5.86,5.86v263.27C241.35,327.57,238.73,330.2,235.49,330.2z M54.75,55.45c-3.09,0-5.61,2.52-5.61,5.61
							v263.27c0,3.09,2.52,5.61,5.61,5.61h180.75c3.09,0,5.61-2.52,5.61-5.61V61.06c0-3.09-2.52-5.61-5.61-5.61H54.75z"/>
					</g>
				</g>
			</g>
			<g>
				<g>
					<rect x="0" y="391.27" class="st1" width="500" height="0.25"/>
				</g>
			</g>
		</g>
		<g>
			<rect x="51.67" y="405.53" class="st1" width="16.06" height="0.25"/>
			<rect x="170.35" y="402.82" class="st1" width="53.53" height="0.25"/>
			<rect x="68.73" y="414.82" class="st1" width="36.25" height="0.25"/>
			<rect x="378.35" y="402.69" class="st1" width="43.19" height="0.25"/>
			<rect x="430.45" y="402.69" class="st1" width="6.33" height="0.25"/>
			<rect x="316.21" y="408.92" class="st1" width="53.89" height="0.25"/>
		</g>
	</g>
	<g id="freepik--Plant--inject-111_00000104675111738361373480000003895964760717645728_">
		<path class="st0" d="M283.85,426.93c0.84-10.53,6.62-21.19,15.92-28.43c2.32-1.8,7.2-5.37,3.25-7.26
			c-4.52-2.16-13.19,7.92-14.4,9.78c2.57-8.03,10.34-13.84,18.78-17.17c4.17-1.65,8.14-3.21,3.7-5.65s-14.05,3.49-16.28,6.03
			c5.27-5.88,11.93-11.76,18.75-15.28c7.53-3.88,4.13-10.36-3.63-5.35c-4.81,3.11-12.72,10.87-12.72,10.87s12.43-19.94,8.68-21.74
			c-4.86-2.33-13.37,24.84-15.73,30.2c0.63-4.44,1.22-15.18-2.92-15.65c-3.78-0.42-2.86,26.33-3.73,31.05
			c-0.55,2.06-0.81,3.11-1.24,5.18c-0.41-3.56-2.92-12.96-6.67-11.87c-3.19,0.92-1.21,7.95-0.39,11.29c2,8.08,4.02,15.9,4.04,24.19
			L283.85,426.93z"/>
		<g>
			<path class="st2" d="M276.96,431.52c-0.85-13.76-6.9-27.68-16.61-37.13c-2.42-2.35-7.5-7.02-3.42-9.48
				c4.71-2.81,13.76,10.34,15.02,12.77c-2.67-10.48-10.79-18.07-19.58-22.42c-4.35-2.15-8.5-4.18-3.86-7.38
				c4.63-3.2,14.67,4.56,16.97,7.87c-5.5-7.69-12.44-15.38-19.55-19.95c-7.85-5.06-4.27-13.52,3.79-6.98
				c5.07,4.05,13.31,14.16,13.31,14.16s-12.96-26.03-9.04-28.43c5.03-3.08,13.94,32.48,16.39,39.43
				c-0.65-5.79-1.26-19.83,3.09-20.44c3.94-0.55,2.97,34.38,3.89,40.55c0.58,2.69,0.85,4.04,1.29,6.76
				c0.44-4.65,3.03-16.91,6.97-15.5c3.32,1.2,1.26,10.38,0.4,14.74c-2.09,10.55-4.21,20.76-4.21,31.58L276.96,431.52z"/>
		</g>
		<polygon class="st1" points="261.96,424.64 266.4,449.01 292.67,449.01 297.38,424.64 		"/>
		<rect x="258.78" y="417.61" class="st1" width="42.25" height="8.13"/>
	</g>
</g>
<g id="Background_simple" class="st3">
	<g class="st4">
		<path class="st5" d="M234.66,66.07c-19.77-0.7-40.14,3.54-59.82,13.44c-23.2,11.66-49.25,32.5-52.52,67.88
			c-6.04,65.33,43.93,79.74,22.79,119.15c-23.95,44.65-31.08,102.55,15.83,131.56c89.1,55.1,251.83-86.7,243.99-190.3
			C400.04,143.31,339.65,69.79,234.66,66.07z"/>
		<path class="st6" d="M234.66,66.07c-19.77-0.7-40.14,3.54-59.82,13.44c-23.2,11.66-49.25,32.5-52.52,67.88
			c-6.04,65.33,43.93,79.74,22.79,119.15c-23.95,44.65-31.08,102.55,15.83,131.56c89.1,55.1,251.83-86.7,243.99-190.3
			C400.04,143.31,339.65,69.79,234.66,66.07z"/>
	</g>
</g>
<g id="Shadow">
	<g>
		<g>
			<path class="st7" d="M458.88,454.44c0,3.39-93.52,6.13-208.88,6.13s-208.88-2.75-208.88-6.13c0-3.39,93.52-6.13,208.88-6.13
				S458.88,451.05,458.88,454.44z"/>
		</g>
	</g>
</g>
<g id="Screen">
	<g>
		<g>
			<path class="st5" d="M98.82,105.68v184.66c0,5.39,4.37,9.76,9.76,9.76h288.9c2.04,0,3.7-1.66,3.7-3.7V104.43
				c0-2.73-2.22-4.95-4.95-4.95H105.02C101.6,99.48,98.82,102.25,98.82,105.68z"/>
			<path class="st8" d="M98.82,105.68v184.66c0,5.39,4.37,9.76,10.93,9.72h288.9c0.87,0.04,2.53-1.62,2.53-3.66V104.43
				c0-2.73-2.22-4.95-4.95-4.95H105.02C101.6,99.48,98.82,102.25,98.82,105.68z"/>
			<path class="st5" d="M401.18,115.58H98.82v-11.24c0-2.68,2.18-4.86,4.86-4.86H397.3c2.14,0,3.88,1.74,3.88,3.88V115.58z"/>
			<path class="st9" d="M397.15,107.53c0,1.89-1.53,3.42-3.42,3.42c-1.89,0-3.42-1.53-3.42-3.42c0-1.89,1.53-3.42,3.42-3.42
				C395.62,104.11,397.15,105.64,397.15,107.53z"/>
			<path class="st9" d="M387.43,107.53c0,1.89-1.53,3.42-3.42,3.42s-3.42-1.53-3.42-3.42c0-1.89,1.53-3.42,3.42-3.42
				S387.43,105.64,387.43,107.53z"/>
			<circle class="st9" cx="374.28" cy="107.53" r="3.42"/>
			<g>
				<path class="st10" d="M152.28,92.31c8.95,0,17.9,0,26.85,0"/>
				<path class="st10" d="M186.53,92.31c1.86,0,3.73,0,5.59,0"/>
			</g>
		</g>
		<g>
			<path class="st11" d="M364.48,148.48H135.52c-5.39,0-9.76-4.37-9.76-9.76l0,0c0-5.39,4.37-9.76,9.76-9.76h228.96
				c5.39,0,9.76,4.37,9.76,9.76l0,0C374.25,144.11,369.87,148.48,364.48,148.48z"/>
			<g>
				<path class="st12" d="M363.61,138.2c0,0.9-0.28,1.74-0.75,2.43c-0.78,1.13-2.08,1.88-3.56,1.88c-2.38,0-4.31-1.93-4.31-4.31
					s1.93-4.31,4.31-4.31C361.68,133.89,363.61,135.82,363.61,138.2z"/>
				<line class="st10" x1="365.56" y1="143.55" x2="362.62" y2="141.25"/>
			</g>
		</g>
		<g class="st13">
			<g>
				<g>
					<g>
						<path class="st11" d="M354.04,277.16c-0.14,0.71-0.59,1.49-1.18,1.98c-0.43,0.36-1.78,1.07-1.93,0.06
							c-0.04-0.28,0.26-1.6,0.38-1.87c0.33-0.79,0.69-0.27,1.23-0.17C353.08,277.27,353.6,276.76,354.04,277.16z"/>
					</g>
				</g>
			</g>
			<g>
				<g>
					<g>
						<path class="st11" d="M350.36,194.82c0.19,0.68,0.32,1.35,0.47,1.98c-0.52,0.78-1.55,0.49-2.31,0.91
							c-0.36,0.2-0.46,0.91-0.8,1.02c-0.28,0.09-0.49-0.29-0.75-0.28c-0.68,0.02-1.01,1.36-1.84,1.02
							c-0.48,0.34,0.02,1.64-0.57,1.75c-0.42,0.08-0.64-0.57-0.9-0.96c-0.3-0.48-0.74-0.74-0.75-1.13c-0.01-0.4,0.68-1.08,0.89-1.36
							c0.27-0.34,0.79-0.99,1.13-1.08c0.63-0.17,1.27,0.07,1.75-0.17c0.41-0.21,0.44-0.99,0.66-1.19c0.19-0.17,0.4-0.12,0.57-0.23
							c0.44-0.28,0.91-1.26,0.66-2.27c-0.16-0.63-1.03-1.32-0.47-2.1c0.83,0.11,1.94,1.1,2.07,2.1c0.05,0.39-0.13,0.78-0.1,1.19
							C350.1,194.26,350.28,194.51,350.36,194.82z"/>
					</g>
				</g>
			</g>
			<g>
				<g>
					<g>
						<path class="st11" d="M350.55,188.64c-0.11,0.29-0.32,0.23-0.52,0.4c-0.19,0.16-0.42,0.68-0.66,0.74
							c-0.38,0.09-0.8-0.45-1.18-0.34c-0.44,0.13-0.18,0.53-0.33,1.02c-0.39-0.1-1.02-0.62-1.04-1.13
							c-0.01-0.32,0.34-0.52,0.42-0.91c0.14-0.65-0.22-0.97-0.42-1.59c-0.01-0.09,0.05-0.1,0.05-0.17c0.46-0.12,1.37,0.93,2.4,1.13
							C349.95,187.93,350.51,187.86,350.55,188.64z"/>
					</g>
				</g>
			</g>
			<g>
				<g>
					<g>
						<path class="st11" d="M348.81,246.13c0.05,0.47-0.64,0.42-0.71,0.11C348.12,245.88,348.73,245.76,348.81,246.13z"/>
					</g>
				</g>
			</g>
			<g>
				<g>
					<g>
						<path class="st11" d="M345.51,183.89c0.47,0.3,1.6,0.97,0.8,1.59C345.83,185.26,345.33,184.53,345.51,183.89z"/>
					</g>
				</g>
			</g>
			<g>
				<g>
					<g>
						<path class="st11" d="M343.34,243.64c0.54-0.35,1.13-1.13,2.07-0.74c-0.21,0.71-0.92,0.69-1.37,1.02
							c-0.45,0.33-0.84,0.9-1.41,0.96c-0.04-0.1-0.11-0.18-0.19-0.23C342.44,244.02,342.97,243.88,343.34,243.64z"/>
					</g>
				</g>
			</g>
			<g>
				<g>
					<g>
						<path class="st11" d="M342.07,232.99c0.55,0,1.07-0.2,1.46,0.06c-0.07,1.42-1.9,0.34-3.11,0.57
							c-0.26,0.05-0.33,0.29-0.61,0.17c0.02-0.48,0.45-0.96,0.9-1.02C341.05,232.72,341.57,232.99,342.07,232.99z"/>
					</g>
				</g>
			</g>
			<g>
				<g>
					<g>
						<path class="st11" d="M342.54,234.74c0.05,0.78-0.84,0.87-1.08,1.47c0.39,0.72,0.54,1.72,0.99,2.38
							c-0.02,0.43,0.07,1-0.14,1.19c-0.95,0.22-1.46-1.83-1.84-2.55c-0.73,0.16-0.06,2.95-1.04,2.6c-0.48-0.17,0.01-0.97-0.1-1.58
							c-0.09-0.54-0.53-0.65-0.57-1.08c-0.03-0.35,0.32-0.72,0.42-1.08c0.15-0.51,0.05-1.5,0.57-1.53c0.25-0.01,0.59,0.64,0.75,0.68
							C341.08,235.4,341.75,234.57,342.54,234.74z"/>
					</g>
				</g>
			</g>
			<g>
				<g>
					<g>
						<path class="st11" d="M340.8,243.18c-0.17,0.43-1.14,0.22-1.22-0.17C339.74,242.57,340.72,242.7,340.8,243.18z"/>
					</g>
				</g>
			</g>
			<g>
				<g>
					<g>
						<path class="st11" d="M339.9,244.54c-0.05,0.08-0.12,0.16-0.19,0.23c-0.36-0.14-0.74-0.24-0.85-0.68
							C339.13,243.62,339.89,244.01,339.9,244.54z"/>
					</g>
				</g>
			</g>
			<g>
				<g>
					<g>
						<path class="st11" d="M338.63,243.13c-0.24,0.41-1.07-0.03-1.37,0.4c-0.49-0.01-0.98-0.02-1.08-0.51
							c0.14-0.41,0.59-0.13,0.94-0.17C337.69,242.78,338.48,242.3,338.63,243.13z"/>
					</g>
				</g>
			</g>
			<g>
				<g>
					<g>
						<path class="st11" d="M331.98,264.82c0-0.5-0.26-0.94-0.33-1.47c-0.02-0.19,0.02-0.44,0-0.68c-0.03-0.35-0.18-0.64-0.14-0.85
							c0.07-0.37,0.43-0.41,0.52-0.74c0.15-0.53-0.18-0.61-0.19-1.25c-0.01-0.45,0.28-0.66,0.47-1.25c0.09-0.27,0.09-0.77,0.19-0.96
							c0.12-0.24,0.64-0.45,0.85-0.56c0.72-0.43,1.3-1.22,2.03-1.36c0.18-0.04,0.43,0.03,0.57,0c0.43-0.09,0.96-0.52,1.56-0.68
							c0.57-0.16,1.08-0.1,1.51-0.4c0.47-0.33,1.14-1.19,1.32-1.7c0.22-0.62,0.15-1.15,0.57-1.36c0.2-0.1,0.4,0.01,0.61-0.06
							c0.22-0.07,0.69-0.34,0.85-0.51c0.33-0.35,0.38-0.93,0.75-1.3c0.26-0.25,0.74-0.65,1.09-0.85c0.2-0.12,0.57-0.25,0.75-0.23
							c0.67,0.07,0.97,1.18,1.7,0.96c0.26-0.08,0.52-0.74,0.76-1.13c0.34-0.58,0.59-1.36,1.18-1.53c0.48-0.14,1.01,0.22,1.27-0.28
							c0.06-0.36-0.22-0.57,0-0.79c0.55,0.04,1.48,0.93,2.31,0.96c0.45,0.02,1.28-0.59,1.37,0.23c0.04,0.36-0.34,0.65-0.42,1.02
							c-0.06,0.26,0.09,0.4-0.05,0.68c-0.38,0.18-0.79,0.28-0.8,0.79c-0.01,0.65,0.76,0.95,1.22,1.3c0.32,0.24,0.58,0.61,0.75,0.74
							c0.15,0.1,0.37,0.15,0.47,0.23c0.31,0.24,0.52,0.78,0.94,0.79c0.48,0.01,0.96-0.72,1.22-1.42c0.31-0.82,0.33-1.8,0.47-2.66
							c0.05-0.29,0.22-0.57,0.28-0.85c0.18-0.77,0.43-1.82,0.99-2.1c0.56,0.72,0.75,2.11,0.66,3.29c0.38,0.34,1.04,0.23,1.13,1.02
							c0.03,0.27-0.11,0.62-0.09,0.9c0.03,0.48,0.33,0.89,0.38,1.3c0.09,0.75-0.1,1.38,0.19,1.93c0.37,0.69,1.09,0.67,1.56,1.42
							c-0.01,0.46,0.15,0.65,0.24,1.02c0.04,0.17,0,0.46,0.05,0.57c0.15,0.38,0.56,0.42,0.71,0.73c0.07,0.16,0.05,0.45,0.14,0.74
							c0.13,0.42,0.44,0.73,0.66,1.13c0.21,0.39,0.56,0.82,0.61,1.13c0.09,0.56-0.25,0.95-0.33,1.41c-0.1,0.56,0,1.29-0.19,1.87
							c-0.22,0.68-0.76,1.35-1.18,2.21c-0.35,0.7-0.82,1.5-1.32,1.98c-0.3,0.29-0.65,0.45-0.94,0.74c-0.45,0.44-0.82,1.02-1.22,1.53
							c-0.42,0.54-0.94,0.95-1.27,1.41c-0.48,0.67-0.72,1.76-1.55,1.87c-0.49,0.06-0.92,0.01-1.37,0.23
							c-0.7,0.33-1.16,0.95-1.51,0.96c-0.36,0.01-0.7-0.51-1.04-0.57c-0.38-0.06-0.67,0.34-1.23,0.34c-0.22,0-0.34-0.16-0.66-0.28
							c-0.67-0.26-1.41-0.25-1.51-1.13c-0.05-0.48,0.26-0.7,0.23-1.13c-0.02-0.43-0.37-0.54-0.52-0.91
							c0.09-0.39,0.11-0.88-0.24-1.13c-0.01-0.35,0.06-0.6,0.19-0.79c-0.27,0.14-0.63,0.23-0.94,0.45
							c-0.34,0.25-0.59,0.82-0.99,0.74c-0.37-0.16-0.09-0.6-0.14-0.96c-0.04-0.27-0.56-1.45-0.8-1.64c-0.27-0.22-1.27-0.67-1.6-0.74
							c-1.46-0.27-2.39,0.66-3.54,0.8c-0.3,0.03-0.62-0.06-0.89,0c-0.95,0.2-2,1.1-2.59,1.7c-0.97,0.12-1.96-0.24-2.97,0.11
							c-1,0.35-1.57,1.35-3.11,1.07c-0.3-0.31-0.85-0.47-0.85-1.02c0-0.43,0.53-0.71,0.71-1.02c0.19-0.33,0.5-1.11,0.52-1.59
							c0.01-0.38-0.21-0.83-0.19-1.3C331.81,265.58,331.99,265.18,331.98,264.82z"/>
					</g>
				</g>
			</g>
			<g>
				<g>
					<g>
						<path class="st11" d="M331.18,241.2c0.26-0.04,0.45-0.27,0.71-0.28c0.55-0.03,1.09,0.49,1.74,0.39
							c0.14,0.18,0.05,0.34,0.05,0.63c0.55,0.35,1.46,0.29,1.74,0.96c-0.41,0.53-1.03,0.15-1.56,0.06
							c-0.48-0.08-0.99-0.04-1.51-0.11c-0.66-0.09-1.26-0.53-1.88-0.62c-0.38-0.06-0.77,0.07-1.13,0c-0.42-0.08-2-0.8-2.03-1.3
							c-0.02-0.52,0.71-0.67,1.37-0.57C329.53,240.48,330.1,241.38,331.18,241.2z"/>
					</g>
				</g>
			</g>
			<g>
				<g>
					<g>
						<path class="st11" d="M332.45,237.29c-0.36-0.12-0.69-0.05-0.85-0.17c-0.32-0.24-0.28-0.92-0.38-1.3
							c-0.1-0.39-0.49-0.6-0.71-1.13c-0.31-0.77-0.44-2.5,0.38-2.66c0.33-0.07,0.67,0.24,0.9,0.17c0.45-0.13,0.37-0.84,0.75-1.13
							c0.21-0.16,0.6-0.09,0.9-0.23c0.31-0.14,0.54-0.49,0.75-0.79c0.2-0.28,0.35-0.76,0.61-0.96c0.29-0.23,0.56-0.24,0.8-0.45
							c0.62-0.57,0.64-1.36,1.13-2.04c0.42-0.58,1.08,0.56,1.13,1.02c0.23,0.36,0.7,0.45,0.89,0.85c-0.28,1-1.06,1.08-0.89,2.49
							c0.03,0.23,0.16,0.66,0.28,0.96c0.13,0.33,0.53,0.69,0.52,0.91c-0.03,0.42-0.74,0.4-0.9,0.85c-0.14,0.41,0.01,0.44-0.05,1.08
							c-0.2,0.46-0.73,0.57-0.9,1.13c-0.2,0.67,0.03,1.54-0.42,2.04c-0.31-0.02-0.66,0.33-1.04,0.28c-0.41-0.05-0.81-0.73-1.46-0.74
							c-0.25,0-0.55,0.19-0.8,0.17C332.91,237.62,332.75,237.39,332.45,237.29z"/>
					</g>
				</g>
			</g>
			<g>
				<g>
					<g>
						<path class="st11" d="M329.4,236.03c1.2,0,1.2,2.24,0,2.24C328.2,238.27,328.2,236.03,329.4,236.03z"/>
					</g>
				</g>
			</g>
			<g>
				<g>
					<g>
						<path class="st11" d="M327.65,235.76c0.15,0.02,0.67,0.9,0.66,1.13c-0.02,0.4-0.51,0.38-0.66,0.91
							c-0.22,0.81,0.1,1.74-0.28,2.15c-0.21,0.16-0.6,0.11-0.94,0.11c-0.85-0.72-1.53-1.58-2.26-2.55
							c-0.27-0.35-0.59-0.65-0.75-1.02c-0.25-0.54-0.33-1.14-0.61-1.64c-0.25-0.44-0.7-0.76-0.94-1.25c-0.2-0.4-0.22-0.92-0.42-1.3
							c-0.2-0.36-0.52-0.51-0.76-0.79c-0.15-0.19-0.24-0.48-0.38-0.68c-0.59-0.85-1.73-1.3-1.79-2.55c0.24-0.33,0.49,0.12,0.94,0.23
							c0.29,0.07,0.64-0.03,0.85,0.06c0.43,0.17,0.72,0.98,1.18,1.42c0.25,0.25,0.59,0.42,0.85,0.68c0.28,0.28,0.48,0.69,0.71,0.85
							c0.31,0.23,0.73,0.37,1.13,0.68c0.55,0.42,1.52,0.85,1.65,1.7c0.03,0.21-0.08,0.57-0.05,0.73c0.07,0.3,0.38,0.43,0.57,0.68
							c0.23,0.32,0.28,0.79,0.61,0.85C327.27,236.27,327.29,235.71,327.65,235.76z"/>
					</g>
				</g>
			</g>
			<g>
				<g>
					<g>
						<path class="st11" d="M305.4,223.87c0.41,0.16,1.76,2.14,1.37,3.23c-0.11,0.31-0.58,0.71-1.04,0.62
							c-0.93-0.18-0.75-2.67-0.47-3.68C305.28,223.96,305.33,223.9,305.4,223.87z"/>
					</g>
				</g>
			</g>
			<g>
				<g>
					<g>
						<path class="st11" d="M274.05,252.53c0.04-0.46,0.31-1.2,0.61-1.47c0.43-0.39,1.02-0.35,1.46-0.62
							c0.36-0.23,0.86-0.6,1.13-1.02c0.23-0.35,0.24-0.76,0.42-1.02c0.13-0.18,0.41-0.23,0.56-0.45c0.14-0.2,0.11-0.57,0.33-0.79
							c0.65-0.34,0.84,1.1,0.94,2.09c0.03,0.31,0.16,0.64,0.14,0.79c-0.07,0.45-0.48,0.55-0.61,0.85c-0.03,1.24-0.44,2.32-0.8,3.34
							c-0.31,0.88-0.5,1.85-0.75,2.61c-0.09,0.28-0.29,0.49-0.38,0.74c-0.34,0.96-0.47,2.48-1.09,2.89c-0.22,0.15-1.08,0.4-1.32,0.4
							c-0.58-0.01-1.08-0.53-1.22-1.13c-0.08-0.32,0-0.66-0.05-1.02c-0.06-0.45-0.28-0.84-0.24-1.36c0.1-1.15,1.04-1.71,1.08-2.66
							C274.32,253.96,273.99,253.25,274.05,252.53z"/>
					</g>
				</g>
			</g>
			<g>
				<g>
					<g>
						<path class="st11" d="M251.34,171.94c0.05,0.95-1.21,0.83-1.37,1.64c-0.07,0.37,0.15,0.86,0.1,1.19
							c-0.1,0.59-0.57,0.42-1.18,0.74c-0.31,0.16-0.61,0.75-0.94,0.79c-0.31,0.04-0.5-0.22-0.71-0.17
							c-0.31,0.07-0.21,0.53-0.66,0.62c-0.36,0.08-1-0.39-1.04,0.17c-0.03,0.36,0.57,0.55,0.94,0.51c0.3-0.03,0.51-0.28,0.8-0.28
							c0.56-0.01,0.92,0.5,1.27,0.51c0.81,0.03,1.6-0.9,2.45-0.79c0.38,0.05,0.61,0.37,0.89,0.34c0.45-0.05,0.84-0.68,1.18-0.91
							c-0.14-0.95,0.01-2.21,0.75-2.27c0.51-0.04,1.27,1.05,1.37,0c0.04-0.45-0.4-0.86-0.71-0.85c-0.27,0.01-0.63,0.65-0.85,0.11
							c0-0.52,0.49-0.38,0.75-0.51c0.2-0.1,0.34-0.36,0.57-0.45c1.12-0.47,2.68,0.46,3.11-0.68c-0.99-1.02-2.69,0.37-3.82,0.28
							c-0.48-0.04-1.12-0.47-1.27-1.02c-0.05-0.17-0.01-0.41-0.05-0.74c-0.04-0.36-0.2-0.74-0.19-0.96
							c0.05-1.02,2.17-1.22,2.17-2.49c-0.4-0.47-1.59-0.39-1.98,0.11c-0.14,0.18-0.13,0.54-0.33,0.91
							c-0.42,0.77-1.79,0.87-2.22,1.81c-0.1,0.21-0.26,0.79-0.19,1.13C250.32,171.23,251.3,171.37,251.34,171.94z M240.12,227.33
							c-1.36-0.24-2.75,0.42-3.68,0.9c-0.54,0.28-1.08,0.71-1.56,0.74c-0.45,0.03-0.89-0.29-1.32-0.34
							c-0.56-0.07-1.28-0.01-1.84,0.11c-0.54,0.12-1.03,0.58-1.51,0.62c-0.91,0.08-1.78-0.99-2.36-1.53
							c-0.35-0.33-0.71-0.6-1.04-0.91c-0.35-0.33-0.81-0.53-1.08-0.85c-0.37-0.43-0.37-1.18-0.57-1.76
							c-0.23-0.68-0.93-1.17-1.46-1.81c-0.4-0.48-1.31-1.2-1.41-1.81c-0.05-0.31,0.11-0.68,0.09-1.02c-0.02-0.5-0.34-0.78-0.33-1.13
							c0.01-0.5,0.5-0.88,0.61-1.3c0.06-0.21,0.03-0.52,0.09-0.79c0.13-0.57,0.45-0.92,0.38-1.76c-0.03-0.33-0.27-0.64-0.28-1.08
							c-0.01-0.3,0.16-0.46,0.14-0.74c-0.04-0.48-0.56-0.58-0.61-1.13c-0.05-0.57,0.46-1.05,0.75-1.7c0.13-0.29,0.21-0.74,0.33-0.96
							c0.26-0.48,0.69-0.71,0.9-1.19c0.15-0.35,0.2-0.87,0.33-1.13c0.17-0.34,0.52-0.52,0.85-0.96c0.27-0.36,0.38-0.8,0.57-0.96
							c0.24-0.21,0.59-0.26,0.85-0.4c0.87-0.48,1.51-1.09,1.93-2.1c-0.13-0.91,0.07-1.3,0.38-1.93c0.29-0.58,0.5-1.14,0.99-1.47
							c0.59-0.4,1.14-0.44,1.55-1.19c0.21-0.38,0.52-1.03,0.52-1.42c0-0.56-0.48-1.28-0.9-1.36c-0.43-0.08-1.08,0.39-1.32-0.17
							c-0.08-0.18,0.03-0.6,0-0.79c-0.05-0.37-0.32-0.63-0.33-0.91c-0.02-0.53,0.44-1.09,0.57-1.7c0.18-0.84,0.01-1.47-0.05-2.44
							c0.66-1.25,2.12-0.63,3.58-0.51c0.22,0.02,0.47-0.06,0.71-0.06c0.87,0.02,1.55,0.34,1.84-0.57c0.11-0.34,0.21-1.61,0.14-1.93
							c-0.08-0.38-0.7-1.36-0.99-1.58c-0.47-0.36-1.15-0.2-1.41-0.85c0.22-1.12,1.26-0.19,1.89-0.45c0.32-0.14,0.28-0.8,0.57-0.91
							c0.19-0.07,0.44,0.23,0.71,0.23c0.23-0.01,1.06-0.5,1.27-0.68c0.3-0.24,0.39-0.75,0.66-0.96c0.18-0.14,0.42-0.12,0.61-0.23
							c0.4-0.21,0.91-0.63,1.18-1.02c0.39-0.56,0.56-1.26,1.04-1.36c0.63-0.14,2.06,0.15,2.17-0.68c0.1-0.79-0.58-1.41-0.33-2.26
							c0.2-0.67,0.7-0.56,1.41-0.96c0.34,0.29,0.24,1.13,0.28,1.64c0.44,0,1.33-0.16,1.41-0.62c0.11-0.58-0.64-1.18-0.8-1.53
							c-0.18-0.38-0.21-1.05-0.57-1.13c-0.72-0.17-1.42,1.19-2.31,1.19c-0.59,0-1.21-0.54-1.37-1.08c-0.09-0.3-0.01-0.59-0.05-0.91
							c-0.06-0.46-0.29-0.94-0.19-1.58c0.36-0.74,1.19-0.86,1.79-1.25c0.23-0.14,0.41-0.45,0.66-0.57c0.42-0.19,1.05,0,1.46-0.28
							c0.26-0.18,0.19-0.49,0.38-0.85c0.12-0.23,0.41-0.36,0.57-0.62c0.11-0.18,0.12-0.46,0.24-0.62c0.41-0.61,1.16-0.84,1.46-1.47
							c0.13-0.28-0.23-0.38-0.14-0.79c0.15-0.4,0.74-0.1,1.08-0.17c0.47-0.09,0.9-0.77,1.41-0.91c0.53-0.14,1.11-0.05,1.6-0.28
							c0.3-0.14,0.57-0.46,0.85-0.51c0.1-0.02,0.38,0.06,0.52,0.06c0.18-0.01,0.37-0.14,0.61-0.17c0.35-0.04,0.78,0.1,1.23,0.11
							c0.74,0.02,1.45-0.27,2.07,0.06c0.32,0.17,0.29,0.61,0.71,0.79c0.21,0.09,0.49-0.04,0.8,0c0.46,0.05,0.94,0.44,1.56,0.51
							c0.22,0.03,0.44-0.03,0.66,0c0.67,0.1,1.41,0.52,2.08,0.79c0.55,0.22,1.72,0.5,1.74,1.13c0.03,0.75-1.02,0.96-1.46,0.96
							c-0.74,0-1.72-0.52-2.5-0.23c0.01,1.28,1.16,2.25,2.22,2.1c0.09-0.6-0.6-0.27-0.52-0.85c0.47-0.43,1.03,0.29,1.7,0.17
							c0.26-0.08,0.22-0.53,0.28-0.85c0.56-0.41,1.26-1.01,2.12-0.57c0.04-0.1,0.11-0.18,0.19-0.23c0.06-0.62-0.57-0.95-0.24-1.53
							c0.16-0.4,1.04-0.26,1.18,0.06c0.07,0.38-0.22,0.34-0.19,0.68c0.17,0.45,0.55,0.52,0.75,0.51c0.46-0.03,0.55-0.53,0.99-0.79
							c0.18-0.11,0.43-0.12,0.66-0.23c0.27-0.13,0.49-0.38,0.71-0.45c0.16-0.05,0.39,0,0.61-0.06c0.28-0.07,0.57-0.34,0.8-0.34
							c0.28,0,0.49,0.39,0.85,0.45c0.2,0.03,0.42-0.13,0.71-0.17c0.23-0.03,0.47,0.03,0.66,0c0.45-0.08,0.76-0.36,1.13-0.34
							c0.26,0.02,0.71,0.44,0.9,0.23c0.3-0.36-0.41-0.63-0.19-0.96c0.72,0.07,1.49,0.05,2.22,0.17c1.08,0.18,2.09,0.83,3.06,0.85
							c-0.09-0.79-0.84-0.56-1.18-0.91c-0.1-0.11-0.52-0.94-0.52-1.19c0-0.13,0.53-1.22,0.66-1.36c0.42-0.47,1.78-0.47,2.17,0.17
							c0.27,0.43,0.18,1.09,0.57,1.08c0.33-0.01,0.51-1,0.9-1.02c0.32-0.02,0.48,0.63,0.8,0.62c0.39-0.01,0.66-0.88,1.18-0.91
							c0.28-0.01,0.37,0.17,0.8,0.23c0.3-0.23-0.1-0.53,0.05-0.85c0.53-0.46,1.73-0.11,2.4-0.4c0.19-0.27-0.24-0.46-0.05-0.74
							c0.58-0.49,1.56-0.53,2.55-0.74c0.6-0.12,1.17-0.63,1.65-0.68c0.5-0.05,0.97,0.35,1.41,0.34c0.27-0.01,0.59-0.1,0.85-0.23
							c0.27-0.12,0.45-0.43,0.71-0.51c0.41-0.12,0.94,0.06,1.41,0c0.51-0.06,0.95-0.3,1.32-0.23c0.34,0.07,0.62,0.5,0.94,0.57
							c0.99,0.19,2.02-0.18,2.92,0.11c0.16,0.05,0.33,0.25,0.52,0.34c0.61,0.27,1.02,0.18,1.13,1.08c0.48,0.2,0.76,0.73,1.32,0.91
							c0.38,0.12,0.75-0.06,1.18-0.06c0.56,0,1.27,0.03,1.74,0.11c0.27,0.05,0.49,0.29,0.75,0.34c0.19,0.04,0.44-0.02,0.66,0
							c0.29,0.03,0.56,0.18,0.8,0.17c0.49-0.02,0.87-0.55,1.27-0.62c0.22-0.04,0.5,0.09,0.71,0.11c0.79,0.08,1.71-0.12,2.36,0.06
							c0.35,0.1,0.94,0.56,1.32,0.91c0.28,0.25,0.45,0.66,0.71,0.85c0.25,0.18,0.88,0.5,1.13,0.45c0.3-0.06,0.31-0.46,0.61-0.62
							c0.94-0.25,2.59,0.36,3.35-0.06c0.29-0.16,0.23-0.53,0.47-0.74c1.41-0.08,2.82,0.07,4.15,0.11c0.47,0.02,0.95-0.14,1.37-0.06
							c0.47,0.1,0.81,0.66,1.27,0.85c0.31,0.13,0.85,0.06,1.32,0.17c0.31,0.07,0.57,0.3,0.8,0.34c0.5,0.09,0.98-0.07,1.46-0.11
							c1.08-0.1,2.47-0.17,3.54,0.34c0.57,0.27,0.8,0.83,1.41,0.91c0.87,0.12,2.22-0.09,3.11,0c0.21,0.02,0.41,0.13,0.57,0.11
							c0.3-0.03,0.48-0.33,0.85-0.34c0.47-0.01,1.21,0.87,1.89,0.74c0.29-0.24-0.23-0.57,0.05-0.79c0.27-0.26,0.63,0,1.04,0
							c0.22,0,0.5-0.14,0.71-0.11c0.52,0.05,1.01,0.61,1.65,0.79c0.51,0.14,1.21,0.2,1.84,0.11c0.45-0.06,0.84-0.24,1.27-0.17
							c0.21,0.03,0.39,0.22,0.61,0.28c0.2,0.06,0.4,0,0.57,0.06c0.16,0.05,0.31,0.23,0.47,0.28c0.88,0.3,2.04,0.45,2.97,0.79
							c0.55,0.2,1.1,0.61,1.56,0.62c0.22,0.01,0.42-0.12,0.71-0.11c1.42,0.01,3.1,0.72,2.97,2.32c-1.67,0.44-3.06-1.38-4.81-0.85
							c-0.28,0.08-0.59,0.45-0.56,0.79c0.06,0.99,2.13,0.9,2.31,1.87c-0.34,0.3-0.71,0.02-0.99,0.06c-0.43,0.06-1.14,0.6-1.41,0.91
							c-0.32,0.36-0.6,1.28-0.94,1.36c-0.42,0.1-1.06-0.5-1.7-0.34c-0.23,0.06-0.45,0.41-0.66,0.45c-0.52,0.12-1.18-0.34-1.51,0.4
							c0.17,0.52,0.07,1.24,0.42,1.53c0.23,0.19,0.52,0.04,0.8,0.17c0.33,0.15,0.51,0.63,0.8,0.91c0.23,0.22,0.48,0.23,0.61,0.51
							c0.03,0.42-0.14,0.46-0.1,0.74c0.07,0.47,0.69,0.58,0.71,0.91c0.02,0.41-0.39,0.32-0.47,0.74c-0.03,0.26,0.25,0.33,0.28,0.68
							c0.02,0.23-0.16,0.47-0.14,0.74c0.02,0.38,0.27,0.63,0.23,0.96c-0.03,0.29-0.23,0.51-0.43,0.62c-0.9-0.7-1.72-1.66-2.69-2.55
							c-0.99-0.92-2.57-2.04-2.73-3.96c-0.01-0.29,0.52-0.53,0.61-0.96c0.04-0.18-0.06-0.43-0.05-0.68c0.03-0.66,0.49-1.3,0.47-1.7
							c-0.02-0.43-0.7-1.24-1.04-1.36c-0.27,0.17,0,0.52-0.05,0.79c-0.05,0.34-0.4,0.76-0.71,0.79c-0.89,0.09-0.99-1.38-2.4-0.96
							c-0.37,0.11-0.88,0.77-0.75,1.59c0.04,0.25,0.61,0.51,0.57,0.85c-0.04,0.33-1.28,0.42-1.56,0.4
							c-0.76-0.07-1.15-0.76-1.84-0.74c-0.34,0.01-0.63,0.34-0.9,0.4c-1.48,0.33-3.69-0.88-4.19,0.68c-0.07,0.22-0.03,0.51-0.1,0.74
							c-0.09,0.33-0.31,0.58-0.38,0.79c-0.06,0.17-0.05,0.52-0.14,0.79c-0.09,0.25-0.98,1.21-0.19,1.47
							c0.19,0.06,0.28-0.1,0.52-0.06c0.4,0.07,1.08,0.85,1.55,0.85c0.28,0,0.68-0.38,0.9-0.4c0.44-0.03,0.75,0.31,1.08,0.51
							c0.32,0.19,0.8,0.58,1.04,0.57c0.44-0.03,0.23-0.4,0.66-0.57c0.82,0.29,1.2,1.33,1.98,2.15c0.28,0.3,0.7,0.55,1.08,0.96
							c0.21,0.23,0.87,0.84,0.9,1.13c0.02,0.27-0.18,0.39-0.24,0.62c-0.08,0.34,0.1,0.6-0.09,0.85c-0.75-0.33-0.92-1.23-1.46-1.98
							c-0.2-0.28-0.4-0.62-0.71-1.02c-0.14-0.18-0.64-0.82-0.94-0.68c-0.59,0.27,0.33,1.35,0.47,1.59c0.31,0.5,0.73,1.17,0.76,1.7
							c0.02,0.34-0.18,0.95-0.19,1.53c0,0.39,0.08,0.75,0.05,1.08c-0.04,0.33-0.23,0.71-0.33,1.08c-0.11,0.41-0.14,0.91-0.23,1.19
							c-0.18,0.51-0.8,1.11-1.23,1.13c-0.39,0.02-0.56-0.36-0.94-0.34c-0.58,0.03-0.69,0.67-1.04,1.19
							c0.03,0.56,0.18,0.75,0.09,1.13c-0.13,0.6-0.82,0.7-0.8,1.3c0.02,0.55,0.64,0.66,0.94,0.91c0.42,0.34,1.16,1.08,1.56,1.7
							c0.26,0.4,0.64,1.16,0.61,1.58c-0.04,0.56-1.38,1.34-1.93,1.13c-0.53-0.2-0.35-0.8-0.47-1.36c-0.1-0.43-0.38-0.61-0.52-0.96
							c-0.08-0.18-0.04-0.47-0.14-0.68c-0.28-0.58-0.78-0.26-1.37-0.62c-0.38-0.24-0.27-0.74-0.42-1.19
							c-0.2-0.61-1.06-0.9-1.74-0.74c-0.5,0.12-0.66,0.63-1.13,0.74c-0.69-0.49,0.14-1.71-0.71-1.81c-0.65-0.08-1.08,1.12-1.46,1.47
							c-0.26,0.24-0.72,0.28-0.75,0.62c-0.06,0.62,0.55,0.5,1.04,0.74c0.44,0.22,0.49,0.82,0.9,0.85c0.34,0.03,0.56-0.42,0.9-0.45
							c0.58-0.06,1.05,0.25,1.41,0.51c-0.24,0.69-1.5,1.19-1.51,2.1c0,0.52,0.51,0.62,0.9,0.96c0.33,0.29,0.76,1.12,1.23,1.7
							c0.2,0.25,0.52,0.41,0.61,0.57c0.22,0.37,0.18,0.83,0.42,1.08c0.04,0.31-0.12,0.39-0.09,0.68c0.12,0.41,0.64,0.33,0.75,0.74
							c-0.1,0.98,0.24,1.9-0.42,2.27c-0.31,1.75-0.65,3.12-1.65,4.08c-0.9,0.86-2.08,1.11-3.16,1.53c-0.28,0.11-0.5,0.46-0.75,0.57
							c-0.63,0.26-1.74,0.1-1.79,1.02c-0.03,0.45,0.48,0.73,0.52,1.19c0.06,0.71-0.47,1.42-0.85,1.47c-0.27,0.04-0.86-0.19-0.9-0.79
							c-0.04-0.68,0.7-0.95,0.75-1.36c0.1-0.72-0.52-1.42-1.22-1.36c-0.62,0.06-2.04,1.56-2.07,2.38c-0.03,0.61,1.01,1.89,1.37,2.27
							c1.32,1.4,2.73,2.24,2.5,5.66c-0.33,0.87-1.18,1.05-1.84,1.53c-0.5,0.36-0.75,1.49-1.6,1.59c-0.34-0.14-0.14-0.78-0.24-1.08
							c-0.13-0.41-0.8-0.6-1.22-1.02c-0.35-0.34-0.49-0.88-0.75-1.19c-0.33-0.39-0.82-0.47-1.23-0.74
							c-0.25-0.17-0.45-0.75-0.71-0.74c-0.42,0.02-0.27,0.5-0.38,1.3c-0.1,0.79-0.58,1.39-0.43,2.32c0.07,0.38,0.46,0.69,0.66,1.08
							c0.33,0.64,0.37,1.39,0.71,1.76c0.22,0.24,0.6,0.29,0.85,0.51c0.5,0.43,1.38,1.36,1.56,1.87c0.2,0.6,0.01,1.3,0.14,1.93
							c0.16,0.73,0.95,1.24,0.47,1.98c-0.45-0.1-0.85-0.46-1.23-0.74c-0.65-0.48-0.95-0.9-1.37-1.7c-0.12-0.23-0.31-0.46-0.38-0.68
							c-0.16-0.51-0.13-1.08-0.28-1.7c-0.13-0.53-0.64-1.37-1.04-1.81c-0.33-0.37-0.92-0.59-0.94-1.13
							c-0.03-0.76,0.21-1.65,0.19-2.55c-0.01-0.19-0.12-0.39-0.14-0.62c-0.05-0.43,0.04-0.97-0.05-1.36
							c-0.08-0.36-0.3-0.69-0.42-1.02c-0.13-0.33-0.25-0.65-0.38-1.08c-0.19-0.65-0.41-1.92-0.85-1.98
							c-0.47-0.07-0.94,1.06-1.56,1.08c-0.32,0.01-0.74-0.3-0.8-0.68c-0.06-0.35,0.15-0.7,0.14-1.08c-0.02-0.76-0.47-1.05-0.8-1.59
							c-0.14-0.22-0.17-0.52-0.28-0.68c-0.21-0.31-0.62-0.48-0.9-0.79c-0.26-0.3-0.54-0.73-0.66-1.02
							c-0.18-0.44-0.24-1.02-0.52-1.08c-0.27-0.06-0.57,0.4-0.85,0.51c-0.29,0.11-0.99,0.26-1.27,0.28
							c-0.95,0.08-1.71-0.22-1.6,1.13c-0.15,0.61-0.68,0.62-1.04,0.91c-0.45,0.37-0.78,1.11-1.27,1.7c-0.24,0.29-0.59,0.47-0.8,0.74
							c-0.18,0.22-0.24,0.58-0.43,0.79c-0.5,0.57-1.26,0.62-1.6,1.42c-0.02,0.94,0.37,1.65,0.28,2.55
							c-0.04,0.41-0.29,0.77-0.33,1.19c-0.03,0.36,0.12,0.75,0.05,1.13c-0.04,0.21-0.23,0.31-0.38,0.57
							c-0.13,0.23-0.18,0.53-0.28,0.68c-0.16,0.24-0.42,0.41-0.57,0.62c-0.24,0.34-0.29,0.58-0.52,0.62
							c-1.03,0.18-1.29-2.18-1.74-3.17c-0.21-0.45-0.64-0.87-0.85-1.42c-0.24-0.63-0.32-1.43-0.66-2.15
							c-0.29-0.62-0.7-1.23-0.9-1.87c-0.17-0.54-0.31-1.21-0.47-1.81c-0.17-0.63-0.35-1.43-0.38-1.93
							c-0.04-0.74,0.12-1.19-0.38-1.47c-0.45,0.13-0.66,0.68-1.18,0.68c-0.5,0-1.85-1.05-1.46-1.98c-0.33-0.56-1.16-0.87-1.79-1.53
							c-0.36-0.38-0.69-1.28-1.32-1.36c-0.17-0.02-0.4,0.1-0.57,0.11c-0.4,0.04-1.11-0.04-1.56,0c-0.57,0.05-1.26,0.21-1.98,0.11
							c-0.46-0.06-1.03-0.17-1.51-0.23c-0.6-0.07-1.41-0.25-1.74-0.62c-0.21-0.23-0.29-0.97-0.66-1.08
							c-0.44-0.12-0.68,0.28-1.08,0.4c-0.86,0.24-1.59-0.21-2.17-0.68c-0.41-0.33-0.79-0.5-1.08-0.74
							c-0.72-0.58-0.85-2.31-1.93-2.32c-0.38,0-0.98,0.28-1.04,0.79c-0.04,0.36,0.36,1.03,0.52,1.3c0.53,0.9,1.5,1.23,1.79,2.43
							c0.2,0.09,0.59-0.21,0.8,0.06c0.18,0.52,0,1.47,0.42,1.7c1.96,0.39,2.52-0.9,3.39-1.81c0.51,0.4,0.34,0.75,0.52,1.19
							c0.18,0.45,0.46,0.81,0.8,0.96c0.24,0.11,0.54,0.01,0.9,0.17c0.22,0.1,1.15,1.16,1.18,1.53c0.02,0.33-0.61,1.47-0.8,1.75
							c-0.19,0.28-0.48,0.43-0.57,0.68c-0.07,0.2-0.05,0.61-0.09,0.74c-0.09,0.23-0.51,0.52-0.75,0.79
							c-0.26,0.29-0.56,0.51-0.8,0.74c-0.3,0.27-0.48,0.65-0.8,0.79c-0.63,0.28-1.22,0.16-1.74,0.57c-0.34,0.27-0.34,0.87-0.75,1.19
							c-0.43,0.34-1.17,0.34-1.79,0.68c-0.4,0.22-0.64,0.64-0.99,0.79c-0.14,0.06-0.32,0.01-0.47,0.06c-0.31,0.1-0.6,0.36-0.9,0.45
							c-0.23,0.07-0.48,0.04-0.71,0.11c-0.73,0.25-1.39,1.14-2.12,0.62c-0.34-0.95-0.4-2.16-0.8-3c-0.2-0.43-0.61-0.57-0.75-1.02
							c-0.02-0.36,0.35-0.26,0.38-0.57c-0.12-0.61-0.6-0.9-0.89-1.42c-0.14-0.25-0.21-0.61-0.38-0.91
							c-0.56-0.98-1.67-1.49-1.89-2.72c-0.06-0.33,0.01-0.59-0.05-0.85c-0.09-0.42-0.33-0.86-0.57-1.19
							c-0.18-0.25-0.55-0.42-0.75-0.79c-0.14-0.24-0.17-0.59-0.28-0.85c-0.47-1.05-1.15-1.98-1.89-2.72c-0.38,0.07-0.8,0.1-0.99,0.4
							c0.19,0.74,0.49,1.36,0.8,1.98c0.29,0.57,0.7,1.17,0.89,1.81c0.07,0.24,0.06,0.54,0.14,0.79c0.3,0.9,1.23,1.17,1.41,2.21
							c0.13,0.69-0.03,1.17,0.14,1.87c0.16,0.67,0.98,1.06,1.32,1.7c0.28,0.52,0.28,1.26,0.47,1.76c0.28,0.73,1.07,1.04,1.65,1.53
							c0.52,0.44,0.89,1.12,1.32,1.59c0.25,0.27,0.6,0.32,0.66,0.62c0.08,0.38-0.13,0.51-0.19,0.85c0.36,0.45,0.71,1.29,1.32,1.36
							c0.25,0.03,0.56-0.27,0.94-0.34c0.19-0.03,0.41,0.04,0.57,0c0.25-0.05,0.47-0.32,0.76-0.4c0.48-0.12,1.04-0.07,1.65-0.17
							c0.58-0.09,0.97-0.68,1.41-0.51c0.48,0.64,0.14,1.36,0,1.98c-0.05,0.22-0.05,0.44-0.09,0.62c-0.26,1.01-0.92,1.75-1.23,2.66
							c-0.09,0.28-0.08,0.62-0.19,0.91c-0.35,0.91-1.08,1.8-1.65,2.55c-0.32,0.42-0.6,0.8-0.94,1.13c-0.34,0.33-0.75,0.52-1.13,0.85
							c-0.75,0.66-1.54,1.61-2.07,2.49c-0.21,0.34-0.3,0.73-0.52,1.02c-0.31,0.41-0.78,0.61-1.04,1.02c-0.2,0.32-0.33,0.9-0.57,1.47
							c-0.26,0.65-0.8,1.09-0.71,1.98c0.04,0.34,0.29,0.56,0.38,0.91c0.15,0.6,0.03,1.11-0.05,1.75c0.27,0.78,0.46,1.64,0.94,2.15
							c0.06,1.15-0.08,2.26,0,3.23c0.05,0.62,0.25,1.07,0.05,1.64c-0.18,0.5-0.86,1.38-1.27,1.7c-0.45,0.35-1.13,0.43-1.6,0.85
							c-0.33,0.29-0.61,0.79-0.94,1.13c-0.56,0.56-1.32,1.08-1.37,1.64c-0.03,0.32,0.21,0.82,0.28,1.13
							c0.18,0.84,0.36,2.04,0.05,2.94c-0.34,0.98-2.07,0.78-2.26,1.81c-0.06,0.31,0.12,0.57,0.09,0.91
							c-0.02,0.29-0.33,1.33-0.47,1.64c-0.21,0.47-0.68,0.68-0.99,1.08c-0.39,0.5-0.58,1.23-0.99,1.75
							c-0.56,0.72-1.31,1.47-2.03,2.1c-0.63,0.54-1.75,1.11-2.73,1.19c-0.57,0.05-1.19-0.16-1.79-0.06
							c-0.22,0.04-0.46,0.28-0.75,0.34c-0.17,0.03-0.34-0.04-0.52,0c-0.3,0.06-0.57,0.34-0.85,0.34c-0.61-0.01-1.39-0.88-1.41-1.75
							c-0.01-0.34,0.24-0.65,0.24-0.96c-0.01-0.36-0.37-0.82-0.66-1.47c-0.28-0.63-0.38-1.35-0.66-1.87
							c-0.29-0.55-0.68-0.81-0.9-1.25c-0.43-0.87-0.47-1.9-0.61-2.95c-0.05-0.34-0.24-0.71-0.28-1.13c-0.05-0.52,0.05-1.1-0.05-1.53
							c-0.08-0.33-0.38-0.67-0.57-1.08c-0.33-0.73-0.57-1.69-0.85-2.26c-0.27-0.53-0.8-1.09-0.85-1.7
							c-0.03-0.41,0.04-1.18,0.09-1.59c0.05-0.4,0.3-0.71,0.38-1.13c0.05-0.28-0.01-0.6,0.05-0.91c0.24-1.3,1.43-1.77,1.27-3.34
							c-0.07-0.67-0.46-1-0.52-1.76c-0.03-0.35,0.15-0.67,0.14-1.02c-0.01-0.48-0.35-1.19-0.52-1.64c-0.48-1.25-0.77-2.39-1.46-3.34
							c-0.38-0.52-0.87-0.88-1.18-1.36c-0.25-0.39-0.56-1.12-0.57-1.42c-0.01-0.32,0.21-0.53,0.28-0.85
							c0.1-0.42,0.11-1.21,0.24-1.87c0.06-0.3,0.33-1.04,0.28-1.53c-0.05-0.47-0.63-1.38-1.13-1.53c-0.66-0.2-1.34,0.25-2.17,0.17
							C241.1,228.93,241.15,227.51,240.12,227.33z M266.18,247.6c0.22-0.42,0.49-1.59,0-1.87c-0.03,0-0.06,0-0.09,0
							C265.88,246.2,265.65,247.34,266.18,247.6z M265.52,235.76c0.16-0.39,0.53-0.81,0.47-1.3c-0.14-1.09-1.83-0.55-2.03,0.23
							c-0.13,0.52,0.08,0.94-0.1,1.47c0.19,0.42,0.65,0.5,1.23,0.45C265.42,236.45,265.38,236.12,265.52,235.76z M262.65,241.6
							c0.19-0.42-0.3-0.69-0.38-1.13c-0.09-0.52,0.11-1.14-0.28-1.42c-0.05,0-0.09,0-0.14,0
							C261.51,239.98,261.99,241.51,262.65,241.6z M294.79,185.36c-0.18-0.43-0.69,0.13-0.47,0.51
							C294.64,185.89,294.76,185.67,294.79,185.36z M283.81,187.68c0.76-0.18,0.01-1.64-0.57-1.47
							C282.49,186.44,283.29,187.8,283.81,187.68z M280.32,194.99c0.24-1.96-1.04-2.11-1.27-3.51c0.11,0.02,0.05-0.16,0.14-0.17
							c0.31-0.18,0.78,0.29,0.94-0.17c0-0.67-0.7-1.17-1.41-0.85c-0.2-0.17-0.23-0.55-0.28-0.91c-0.53-0.38-1.86-1.22-1.84-1.98
							c0.02-0.63,0.69-0.98,1.46-0.96c0.33-0.3,0.12-1.21-0.19-1.42c-1.22-0.32-1.87-0.1-2.64,0.57c-0.37,0.32-0.78,0.54-0.99,0.74
							c-0.19,0.18-0.44,0.66-0.42,0.91c0.03,0.35,0.45,0.56,0.61,1.02c0.08,0.24,0.07,0.54,0.14,0.74c0.21,0.55,0.73,0.9,1.13,1.36
							c0.28,0.32,1.07,1.03,1.08,1.42c0.01,0.32-0.24,0.39-0.33,0.74c-0.09,0.34-0.19,1.13-0.14,1.42c0.1,0.62,0.64,0.64,1.13,0.91
							c0.49,0.26,0.96,0.72,1.46,0.74C279.45,195.57,280.02,195.36,280.32,194.99z M269.25,190.91c1.28-0.28,0.69-1.57,0.05-2.04
							c-0.49-0.35-1.08-0.66-1.65-1.08c-0.33-0.24-1.59-0.7-1.6-1.19c-0.01-0.53,0.94-0.71,0.57-1.64
							c-0.65-0.19-2.18,0.11-2.07,0.96c0.06,0.49,0.55,0.22,0.66,0.74c-0.46,0.2-1.02,0.72-1.51,0.62
							c-0.58-0.11-0.73-0.96-1.04-1.47c-0.45,0.02-0.74-0.52-1.27-0.45c-0.55,0.07-0.85,1.04-1.13,1.53
							c-0.15,0.26-0.39,0.39-0.47,0.62c-0.05,0.14,0,0.36-0.05,0.57c-0.16,0.63-0.62,0.86-0.57,1.42c0.04,0.49,0.49,0.71,0.52,1.13
							c-0.03,0.43-0.61,0.21-0.57,0.74c0.84,0.84,0.89-0.39,1.32-0.57c0.34-0.14,1.02,0.11,1.46,0c0.35-0.09,0.63-0.5,1.04-0.68
							c0.25-0.11,0.55-0.21,0.9-0.23c1.5-0.07,2.47,1.1,3.77,1.13C268.03,191.03,268.8,191.01,269.25,190.91z M266.23,197.59
							c0.03-0.61-0.19-1.07-0.24-1.92c-0.87-0.63-1.52,0.58-2.4,0.45c-0.54-0.08-0.93-0.84-1.51-0.74c-0.32,0.06-0.48,0.55-0.8,0.62
							c-0.67,0.15-0.98-0.65-1.7-0.34c-1.01-0.92-1.46-2.43-1.7-4.13c-0.55-0.87-1.39-0.16-1.79,0.4c-0.25,0-0.56-0.16-0.61,0.17
							c-0.19,1.05,1.23,1.16,1.22,1.87c0,0.46-0.55,0.42-0.8,0.74c-0.26,0.34-0.09,0.64-0.42,0.85c-0.93,0.13-1.24-0.48-1.23-1.47
							c-0.4-0.73-0.91-1.27-1.27-1.87c-0.13-0.22-0.34-0.57-0.38-0.91c-0.03-0.26,0.1-0.6,0.05-0.91c-0.1-0.54-0.94-0.95-1.46-1.25
							c-0.56-0.32-1.25-0.62-1.65-1.02c-0.28-0.28-0.41-0.78-0.66-0.96c-0.21-0.16-0.47-0.13-0.66-0.28
							c-0.26-0.22-0.22-0.58-0.57-0.68c-0.18-0.08-0.45,0.21-0.57,0.4c-0.23,1.24,0.61,1.32,0.99,1.87
							c0.26,0.38,0.39,0.94,0.66,1.19c0.28,0.26,0.67,0.22,1.04,0.4c0.25,0.12,0.42,0.5,0.66,0.68c0.45,0.33,1.17,0.39,1.23,1.02
							c-0.28,0.23-0.91-0.33-1.13,0.23c-0.06,0.37,0.24,0.56,0.24,0.91c-0.01,0.56-0.53,1.17-0.99,1.08
							c-0.05-0.33,0.25-0.6,0.24-0.96c-0.02-0.72-1.23-1.82-1.84-2.15c-0.29-0.16-0.64-0.16-0.9-0.34
							c-0.46-0.31-1.27-1.08-1.56-1.53c-0.34-0.54-0.62-1.53-1.37-1.47c-0.3,0.02-0.55,0.36-0.8,0.51
							c-0.23,0.14-0.48,0.27-0.71,0.45c-0.27,0.22-0.5,0.44-0.75,0.45c-0.59,0.03-1.09-0.53-1.6-0.4c-0.17,0.04-0.31,0.23-0.52,0.45
							c-0.01,0.33,0.08,0.54,0.05,0.9c-0.15,0.32-0.61,0.3-0.94,0.51c-0.49,0.31-0.92,0.94-1.32,1.42c-0.26,0.3-0.49,0.55-0.52,0.79
							c-0.02,0.19,0.13,0.54,0.1,0.79c-0.04,0.27-0.47,0.84-0.75,1.08c-0.17,0.14-0.39,0.16-0.57,0.28
							c-0.37,0.26-0.54,0.61-0.85,0.68c-0.82,0.18-2.32-0.2-2.31,0.85c0.01,0.7,0.79,0.7,1.27,0.68c0.67-0.03,1.23,0.17,1.6,0.06
							c0.25-0.08,0.53-0.42,0.8-0.57c0.17-0.09,0.34-0.09,0.47-0.17c0.28-0.17,0.44-0.45,0.66-0.57c0.43-0.24,1.23-0.42,1.7-0.45
							c0.64-0.04,1.3,0.08,2.12,0c0.29-0.03,0.58-0.25,0.9-0.28c0.51-0.05,1.19,0.24,1.6,0.23c0.29-0.01,0.61-0.35,0.94-0.34
							c0.38,0.01,0.78,0.33,0.85,0.62c0.04,0.17-0.08,0.43-0.05,0.68c0.05,0.41,0.35,0.58,0.33,0.85c-0.03,0.35-0.76,0.83-0.66,1.25
							c0.07,0.27,0.59,0.55,0.85,0.74c0.27,0.2,0.72,0.47,1.04,0.51c0.27,0.04,0.5-0.09,0.75-0.06c0.41,0.05,1.06,0.35,1.32,0.57
							c0.44,0.37,0.38,0.98,0.89,1.19c0.22,0.09,0.61,0.04,0.9,0.11c0.69,0.18,1.2,0.86,1.7,0.79c0.79-0.11,0.43-1,0.52-1.64
							c0.2-1.45,2.55-1.38,3.02-0.4c0.34,0.11,0.65,0.02,1.04,0.17c0.23,0.09,0.39,0.39,0.61,0.45c0.16,0.05,0.4-0.03,0.61,0
							c0.9,0.12,1.72,0.93,2.5,0.79c0.49-0.09,0.85-0.64,1.32-0.68c0.9-0.07,1.48,0.81,2.45,0.4c0.72-0.3,0.56-1.19,0.8-2.1
							C265.88,198.49,266.21,198.07,266.23,197.59z M317.04,178.28c0.19-0.72-0.1-1.45-0.47-1.93c-0.54,0.11-0.15,0.79-0.19,1.19
							c-0.05,0.56-0.55,0.95-0.52,1.53c-0.18,0.25-0.49,0.35-0.52,0.79c0.3,0.25,0.43-0.2,0.66-0.45
							C316.36,179.01,316.92,178.77,317.04,178.28z M304.69,158.63c-0.52,0-0.71,0.25-1.04,0.45c-0.18,0.11-0.54,0.18-0.42,0.51
							C303.68,159.53,304.58,159.28,304.69,158.63z M284.8,165.6c1.11,0.31,1.63-1.19,0.89-2.04c-0.17-0.2-0.75-0.27-0.99-0.74
							c-0.29-0.55-0.25-1.29-0.94-1.13c-0.01,0.07,0.01,0.16-0.05,0.17c-0.07,1.24,1.44,1.55,1.41,2.55
							C285.12,164.93,284.66,164.98,284.8,165.6z"/>
					</g>
				</g>
			</g>
			<g>
				<g>
					<g>
						<path class="st11" d="M269.29,163.44c-0.14-0.61,0.83-0.51,0.66,0.06C269.8,163.67,269.39,163.66,269.29,163.44z"/>
					</g>
				</g>
			</g>
			<g>
				<g>
					<g>
						<path class="st11" d="M263.5,197.31c0.02-0.47,0.91-0.64,1.08-0.23C264.52,197.54,263.68,197.85,263.5,197.31z"/>
					</g>
				</g>
			</g>
			<g>
				<g>
					<g>
						<path class="st11" d="M247.33,194.25c0.49-0.48,1.59-0.15,2.26-0.17c-0.13,0.43-0.15,1-0.43,1.25
							C248.4,195.16,247.67,194.93,247.33,194.25z"/>
					</g>
				</g>
			</g>
			<g>
				<g>
					<g>
						<path class="st11" d="M243.89,191.25c0.65-0.81,1.33-0.38,1.08,1.19c-0.15,0.47-0.83,1.1-1.13,0.4
							C243.94,192.29,243.9,191.88,243.89,191.25z"/>
					</g>
				</g>
			</g>
			<g>
				<g>
					<g>
						<path class="st11" d="M244.83,189.44c0.05,0.48-0.11,0.69-0.33,0.85C243.88,190.16,244.35,188.82,244.83,189.44z"/>
					</g>
				</g>
			</g>
			<g>
				<g>
					<g>
						<path class="st11" d="M235.69,177.94c0.05-0.32-0.16-0.73-0.43-0.91c-0.15-0.1-0.39-0.06-0.57-0.17
							c-0.46-0.3-0.63-0.94-0.89-1.08c0.03-0.62-0.14-1.07,0-1.47c0.09-0.24,0.7-0.94,1.04-1.08c0.41-0.17,0.84-0.02,1.08-0.4
							c0.11-0.02,0.18,0.01,0.24,0.06c0,0.36-0.25,0.42-0.28,0.74c0.06,0.51,0.81,0.19,0.89,0.68c-0.07,0.53-0.47,0.63-0.47,1.02
							c0,0.34,0.57,0.97,0.85,1.42c0.21,0.33,0.57,0.57,0.75,0.91c0.16,0.29,0.2,0.64,0.33,0.79c0.25,0.28,0.81,0.33,0.85,0.74
							c0.05,0.54-0.56,0.75-0.47,1.36c-0.65,0.61-1.73,0.29-2.78,0.45c-0.48,0.07-1,0.64-1.51,0.17c-0.12-0.38,0.42-0.43,0.47-0.79
							c-0.04-0.33-0.39-0.29-0.47-0.57c0.14-0.44,0.56-0.53,0.52-1.19C235.1,178.28,235.61,178.41,235.69,177.94z"/>
					</g>
				</g>
			</g>
			<g>
				<g>
					<g>
						<path class="st11" d="M232.15,176.58c0.63-0.46,1.73-0.11,1.79,0.45c0.05,0.42-0.33,0.49-0.47,0.96
							c-0.12,0.43,0.02,0.95-0.14,1.25c-0.14,0.26-0.54,0.24-0.8,0.34c-0.59,0.21-1.74,1.05-2.22,0.11c0.07-0.5,0.47-0.6,0.61-1.02
							c0.01-0.33-0.28-0.5-0.24-0.85c0.06-0.43,0.33-0.28,0.71-0.45C231.68,177.25,231.79,176.84,232.15,176.58z"/>
					</g>
				</g>
			</g>
			<g>
				<g>
					<g>
						<path class="st11" d="M199.96,164.29c0.1,0.5-1.24,1.16-1.37,0.51C198.49,164.28,199.62,163.63,199.96,164.29z"/>
					</g>
				</g>
			</g>
			<g>
				<g>
					<g>
						<path class="st11" d="M198.4,291.94c-0.24,0-0.47,0-0.71,0C197.82,291.85,198.28,291.85,198.4,291.94z"/>
					</g>
				</g>
			</g>
			<g>
				<g>
					<g>
						<path class="st11" d="M196.28,160.27c0.06-0.08,0.22-0.08,0.28,0c-0.05,0.13-0.08,0.28-0.28,0.23
							C196.28,160.42,196.28,160.35,196.28,160.27z"/>
					</g>
				</g>
			</g>
			<g>
				<g>
					<g>
						<path class="st11" d="M192.09,169.28c0.01,0.31-0.94,0.83-1.04,0.23c-0.02-0.11,0-0.32,0.19-0.45
							C191.49,168.86,192.08,168.97,192.09,169.28z"/>
					</g>
				</g>
			</g>
			<g>
				<g>
					<g>
						<path class="st11" d="M172.48,221.89c-0.03,0.08-0.07,0.14-0.09,0.23C171.88,222.09,172.34,221.33,172.48,221.89z"/>
					</g>
				</g>
			</g>
			<g>
				<g>
					<g>
						<path class="st11" d="M153.34,182.3c0.33-0.23,0.65,0.35,0.43,0.62C153.4,183.01,153.31,182.51,153.34,182.3z"/>
					</g>
				</g>
			</g>
			<g>
				<g>
					<g>
						<path class="st11" d="M204.72,184.4c-0.22-0.07-0.52-0.05-0.8-0.11c-0.24-0.05-0.53-0.14-0.75-0.17
							c-0.58-0.08-1.21,0.12-1.56-0.28c0.56-0.9,1.31-1.78,2.03-2.55c0.21-0.23,0.67-0.39,0.57-0.85c-0.4-0.42-0.89,0.03-1.27,0.28
							c-0.4,0.27-0.87,0.66-1.32,0.74c-0.78,0.14-1.81-0.27-2.45,0.23c-0.09,0.43,0.72,0.26,0.61,0.91
							c-0.31,0.06-0.61,0.09-0.85-0.17c-0.22-0.24-0.09-0.59-0.24-0.74c-0.24-0.24-1.15-0.31-1.56-0.23
							c-0.5,0.1-0.93,0.45-0.99,0.96c0.6,0.33,1.58-0.34,1.79,0.51c-0.33,0.71-1.09,1.09-0.99,2.04c0.04,0.36,0.4,0.85,0.66,0.91
							c0.26,0.05,0.41-0.26,0.66-0.23c0.27,0.03,0.21,0.4,0.52,0.34c0.45-0.23,0.7-1,1.23-0.96c0.62,0.91-0.56,1.35-1.23,1.64
							c-0.75,0.33-1.74,0.5-2.31,0.79c-0.3,0.15-1.44,1.48-1.6,0.45c-0.12-0.74,0.56-0.52,0.71-1.13c-0.73-0.17-1.41,0.38-2.07,0.68
							c-0.95,0.43-2.55,0.7-2.78,1.98c-0.05,0.26,0.09,0.74-0.05,0.91c-0.11,0.14-0.79,0.16-1.08,0.28
							c-0.45,0.19-0.85,0.59-1.13,0.68c-0.21,0.07-0.53,0.05-0.66,0.11c-0.37,0.17-0.51,0.78-0.94,1.19
							c-0.18,0.17-0.57,0.29-0.71,0.45c-0.24,0.29-0.28,1.02-0.71,1.13c-0.27,0.03-0.5-0.25-0.75-0.06
							c-0.03,0.72,0.21,1.7-0.05,2.44c-0.56,0.55-1.17,0.93-1.89,1.42c-0.4,0.27-0.75,0.34-1.23,0.62c-0.34,0.2-0.65,0.69-1.04,0.96
							c-0.9,0.64-1.99,1.39-1.98,3c0,0.35,0.15,0.72,0.19,1.13c0.02,0.24-0.02,0.47,0,0.74c0.06,0.59,0.41,1.35,0,1.75
							c-0.63-0.31-1.44-0.42-1.89-0.96c-0.12-0.56,0.25-1.02,0.19-1.53c-0.05-0.41-0.52-1.14-0.8-1.19
							c-0.29-0.05-0.55,0.31-0.85,0.28c-0.35-0.03-0.68-0.62-1.13-0.68c-0.66-0.09-1.15,0.18-1.89,0.06
							c-0.71,0.46-0.92,1.27-1.79,1.19c-0.31-0.03-0.59-0.31-0.94-0.4c-0.38-0.1-0.97-0.26-1.37-0.23c-0.8,0.06-1.38,0.76-2.07,1.19
							c-0.61,0.38-1.47,0.85-1.65,1.64c-0.1,0.42-0.02,1.02-0.14,1.42c-0.08,0.26-0.27,0.49-0.38,0.74
							c-0.53,1.16-0.97,2.69-0.57,4.36c0.06,0.25,0.58,1.64,0.8,1.92c0.24,0.31,0.96,0.78,1.37,0.79c0.34,0.01,0.75-0.21,1.08-0.28
							c0.39-0.08,0.87-0.09,1.23-0.23c1.02-0.39,0.82-2.05,1.84-2.61c0.44-0.24,0.96-0.29,1.74-0.34c0.25,0.25,0.37,0.69,0.33,1.08
							c-0.03,0.29-0.25,0.55-0.38,0.96c-0.11,0.36-0.13,0.79-0.24,1.08c-0.14,0.38-0.45,0.66-0.57,1.02
							c-0.07,0.23-0.03,0.52-0.09,0.74c-0.11,0.37-0.52,0.64-0.33,1.02c1.01,0.48,2.23-0.14,3.11,0.06c0.37,0.08,1.14,0.62,1.13,1.3
							c0,0.51-0.33,0.85-0.38,1.42c-0.06,0.71-0.3,1.58-0.33,2.15c-0.04,0.94,1.15,2.56,1.98,2.55c0.9-0.01,1.42-1.07,2.5-0.51
							c0.36,0.19,0.74,0.88,1.13,0.85c0.33-0.03,0.82-0.71,1.04-1.19c0.27-0.58,0.28-1.07,0.75-1.36c0.51-0.31,0.91-0.16,1.56-0.45
							c0.29-0.13,0.54-0.35,0.8-0.57c0.23-0.19,0.47-0.68,0.75-0.34c0.38,0.45-0.46,0.71-0.14,1.19c0.65,0.42,0.99-0.77,1.46-0.79
							c0.15-0.01,0.67,0.35,0.94,0.57c0.37,0.29,0.49,0.7,0.9,0.79c0.26,0.06,0.67-0.12,1.04-0.06c0.48,0.08,0.77,0.58,1.13,0.57
							c0.44-0.01,0.66-0.6,1.04-0.68c0.83-0.18,1.14,0.11,1.51,0.74c0.41,0.09,0.42-0.57,0.8-0.34c-0.21,0.49,0.07,0.72,0.24,1.13
							c0.11,0.26,0.09,0.45,0.19,0.57c0.22,0.26,0.66,0.26,0.99,0.51c0.35,0.26,0.54,0.75,0.94,1.3c0.41,0.56,1.1,1.15,1.65,1.19
							c0.52,0.04,0.94-0.18,1.37-0.11c0.97,0.14,1.58,0.73,2.26,1.36c0.38,0.35,0.73,0.6,0.85,1.02c0.09,0.29,0.04,0.69,0.14,1.02
							c0.21,0.7,1.06,1.05,0.75,2.27c0.14,0.36,0.46,0.49,0.8,0.74c0.27,0.2,0.5,0.62,0.8,0.68c0.19,0.04,0.4-0.07,0.57-0.06
							c0.54,0.05,0.9,0.29,1.37,0.51c0.29,0.13,0.66,0.19,0.85,0.34c0.24,0.19,0.27,0.85,0.57,1.02c0.19,0.11,0.62-0.04,0.94,0
							c0.51,0.07,1.19,0.44,1.65,0.45c0.28,0.01,0.51-0.14,0.75-0.11c1.15,0.11,1.81,1.77,2.92,2.27c0.35,0.16,0.89,0.05,1.13,0.17
							c0.42,0.22,0.77,1.75,0.8,2.43c0.1,2.06-1.22,2.72-1.98,4.08c-0.16,0.28-0.25,0.74-0.47,1.13c-0.45,0.8-0.96,0.97-0.9,2.44
							c0.02,0.4,0.19,0.8,0.19,1.25c0,0.55-0.04,1.26-0.14,1.76c-0.08,0.38-0.34,0.68-0.38,1.02c-0.04,0.34,0.08,0.61,0.05,0.91
							c-0.04,0.33-0.31,0.79-0.52,1.24c-0.44,0.97-0.53,2.1-1.41,2.49c-0.52,0.23-1.22,0.1-1.79,0.34c-0.23,0.1-0.52,0.35-0.8,0.51
							c-0.82,0.46-1.99,1.08-2.22,2.1c-0.2,0.91,0.28,1.63,0.14,2.66c-0.15,0.31-0.34,0.62-0.57,0.96c-0.2,0.32-0.3,0.7-0.52,1.02
							c-0.28,0.43-0.72,0.61-0.89,1.19c-0.06,0.19-0.02,0.43-0.09,0.74c-0.03,0.11-0.2,0.29-0.28,0.51
							c-0.08,0.2-0.07,0.46-0.14,0.62c-0.22,0.52-0.86,1.71-1.32,1.87c-0.98,0.33-2.01-0.5-2.69-0.34c0.1,0.57,0.44,0.51,0.66,0.91
							c0.13,0.23,0.2,0.54,0.38,0.79c0.21,0.29,0.4,0.4,0.42,0.74c0.05,0.7-0.4,1.4-0.71,1.64c-0.28,0.22-0.87,0.35-1.37,0.45
							c-0.35,0.07-1.25,0.07-1.41,0.34c-0.24,0.39,0.13,1.36-0.05,1.75c-0.35,0.83-1.3-0.02-1.79,0.23
							c-0.04,0.43,0.09,0.88,0.38,1.08c0.3,0.21,0.75-0.06,0.94,0.34c-0.1,0.56-0.6,0.64-0.71,1.19c0.01,0.54,0.15,0.68,0.09,1.02
							c-0.12,0.73-1.06,0.7-1.04,1.47c0.04,1.16,1.85,0.68,1.89,1.81c0.02,0.68-0.52,0.69-0.71,1.36c-0.1,0.36,0.06,0.44,0,0.74
							c-0.08,0.4-0.47,0.52-0.47,0.96c0,0.54,0.66,1.14,0.99,1.59c0.32,0.44,0.74,1.07,1.18,1.36c0.66,0.44,1.65,0.34,1.93,1.13
							c-0.09,0.48-0.47,0.6-0.85,0.74c-0.03,0-0.06,0-0.09,0c-0.13-0.09-0.58-0.09-0.71,0c-0.22,0-0.44,0-0.66,0
							c-0.63-0.35-1.4-0.57-2.17-0.9c-0.28-0.12-0.59-0.4-0.9-0.56c-0.23-0.13-0.48-0.17-0.66-0.29c-0.41-0.26-0.86-1.09-1.27-1.41
							c-0.25-0.2-0.64-0.31-0.8-0.51c-0.15-0.19-0.24-0.61-0.38-0.85c-0.15-0.26-0.43-0.45-0.61-0.74c-0.39-0.63-0.89-1.47-0.9-1.93
							c0-0.45,0.36-0.76,0.24-1.19c-0.12-0.4-0.84-0.31-0.94-0.79c-0.06-0.29,0.21-0.78,0.19-1.19c-0.01-0.24-0.38-0.56-0.24-0.91
							c0.17-0.4,0.49,0.03,0.75-0.17c-0.2-0.82,0.02-2.13-0.66-2.38c-0.35,0.35,0.35,1.14-0.24,1.36c-0.57-0.3-0.44-1.21-0.57-1.87
							c-0.08-0.44-0.26-0.83-0.28-1.3c-0.01-0.25,0.08-0.53,0.05-0.79c-0.1-0.76-0.81-1.39-0.85-2.15
							c-0.02-0.37,0.19-0.68,0.24-1.08c0.03-0.27-0.03-0.57,0-0.85c0.04-0.36,0.21-0.69,0.24-1.02c0.06-0.62,0-1.69-0.09-2.21
							c-0.12-0.65-0.55-1.21-0.61-1.92c-0.02-0.26,0.07-0.69,0.05-1.02c-0.02-0.31-0.16-0.61-0.19-0.96
							c-0.02-0.32,0.07-0.63,0.09-1.02c0.05-0.71-0.12-1.5-0.09-2.21c0.01-0.21,0.1-0.36,0.09-0.57c-0.01-0.58-0.17-1.17-0.19-1.76
							c-0.04-1.08,0.1-1.84-0.05-2.83c-0.11-0.75-0.25-1.91-0.47-2.38c-0.25-0.53-1.24-1.42-1.74-1.76
							c-0.33-0.22-0.72-0.3-1.08-0.51c-0.77-0.45-2.26-1.41-2.59-2.32c-0.1-0.26-0.08-0.61-0.19-0.91c-0.2-0.58-0.64-1.08-0.94-1.64
							c-0.58-1.07-1.05-2.41-1.65-3.51c-0.3-0.56-0.56-1.2-0.89-1.64c-0.19-0.26-0.82-0.51-0.9-0.91c-0.11-0.52-0.43-1.24-0.38-1.64
							c0.07-0.54,0.94-0.98,0.94-1.47c0-0.42-0.47-0.66-0.57-1.02c-0.24-0.87,0.14-1.37,0.42-2.1c0.09-0.24,0.19-0.62,0.28-0.79
							c0.17-0.31,0.52-0.4,0.75-0.74c0.13-0.19,0.21-0.58,0.38-0.85c0.36-0.57,0.94-0.79,1.08-1.3c0.12-0.42,0.19-2.52,0.05-3.23
							c-0.08-0.41-0.4-0.75-0.52-1.13c-0.21-0.68-0.26-1.43-0.85-1.42c-0.36,0.01-0.62,0.49-0.85,0.79
							c-0.06,0.4-0.03,0.84-0.38,0.96c-0.54,0.19-0.74-0.68-1.37-0.91c-0.25-0.09-0.65-0.09-0.8-0.17c-0.46-0.25-0.6-1.05-1.08-1.36
							c-0.4-0.26-0.75-0.17-0.99-0.57c-0.1-0.27-0.02-0.77-0.05-1.13c-0.52-0.36-0.95-1.72-1.56-2.04c-0.4-0.21-1.01-0.19-1.51-0.4
							c-0.23-0.1-0.42-0.22-0.66-0.28c-0.3-0.08-0.61-0.09-0.85-0.23c-0.93-0.56-1.44-2.36-2.59-2.32
							c-0.49,0.02-0.97,0.57-1.41,0.57c-0.44,0-1.19-0.43-1.74-0.74c-0.58-0.32-1.22-0.5-1.7-0.79c-0.39-0.24-0.65-0.67-0.99-0.85
							c-0.26-0.14-0.64-0.16-0.85-0.28c-0.3-0.17-0.62-0.54-0.99-0.85c-0.36-0.3-0.74-0.75-0.75-1.13
							c-0.02-0.44,0.34-0.82,0.38-1.25c0.12-1.35-0.71-2.32-1.23-3.11c-0.39-0.59-0.84-1.09-1.22-1.64c0.02-0.36,0.02-0.43,0-0.79
							c-0.29-0.34-0.54-0.85-0.85-1.36c-0.28-0.46-0.82-0.95-0.9-1.47c-0.09-0.64,0.2-1.2,0-1.81c-0.34-1.03-1.52-0.56-1.37,0.79
							c0.04,0.37,0.48,0.88,0.61,1.25c0.14,0.38,0.11,0.85,0.24,1.3c0.12,0.44,0.49,0.81,0.61,1.3c0.2,0.78,0.19,1.61,0.38,2.1
							c0.16,0.43,0.76,0.84,0.42,1.36c-0.45,0.11-0.62-0.42-0.9-0.74c-0.15-0.17-0.72-0.5-0.8-0.91c-0.07-0.33,0.18-0.78,0.09-1.19
							c-0.16-0.8-1.5-0.82-1.51-1.64c0-0.52,0.56-0.58,0.57-1.08c0-0.55-0.62-1.01-0.75-1.47c-0.12-0.42-0.14-1.1-0.19-1.7
							c-0.04-0.56,0.01-1.21-0.1-1.64c-0.1-0.39-0.58-0.92-0.9-1.13c-0.41-0.28-0.74-0.16-0.94-0.57c-0.18-0.35-0.29-1.09-0.33-1.47
							c-0.07-0.68-0.02-1.43-0.05-2.15c-0.03-0.73-0.09-1.43,0-2.21c0.23-0.55,0.66-0.82,0.9-1.36c0.17-0.38,0.19-0.84,0.38-1.25
							c0.35-0.74,1.1-1.42,1.6-2.15c0.55-0.79,1.05-1.54,1.37-2.44c0.11-0.32,0.42-1.03,0.38-1.42c-0.06-0.54-0.92-0.99-0.85-1.64
							c0.04-0.4,0.52-0.4,0.66-0.79c0.07-0.2,0.14-0.77,0.14-1.02c0.01-0.55-0.23-1.12-0.14-1.7c0.08-0.5,0.69-0.7,0.38-1.25
							c-0.31-0.54-0.88,0.29-1.23-0.06c-0.32-0.32,0.06-0.71,0.09-1.3c0.01-0.24-0.11-0.5-0.09-0.68c0.03-0.25,0.44-0.68,0.33-0.85
							c-0.25-0.39-0.54-1.37-1.08-1.7c-0.69-0.42-1.44-0.14-2.4-0.34c-0.59-0.12-0.87-0.79-1.41-0.74
							c-0.34,0.03-0.53,0.49-0.99,0.74c-0.46,0.24-1.05,0.16-1.51,0.28c-0.45,0.12-0.67,0.5-1.13,0.45
							c-0.39-0.04-0.39-0.46-0.85-0.51c-0.18-0.02-0.52,0.13-0.8,0.17c-0.73,0.09-2.04,0.14-2.78-0.06
							c-0.67-0.18-1.09-0.43-1.84-0.85c-0.56-0.31-1.6-0.7-1.56-1.19c0.03-0.32,0.99-0.65,1.37-0.79c0.61-0.22,0.99-0.59,1.46-0.62
							c0.18-0.01,0.42,0.13,0.66,0.11c0.24-0.02,0.54-0.29,0.85-0.34c0.66-0.11,1.59,0.04,1.51-0.74c-0.5-0.48-2.54,0.35-2.59-0.68
							c-0.03-0.62,0.77-0.81,1.37-0.96c0.54-0.14,1.36-0.37,1.84-0.34c0.54,0.03,1.25,0.76,1.56-0.06c0.15-0.58-0.18-1.06-0.28-1.53
							c0.4-0.66,1.14-0.58,1.7-0.68c0.64-0.11,1.16-0.25,1.79-0.57c0.55-0.28,1.14-0.46,1.79-0.57c0.64-0.1,1.26-0.39,1.84-0.45
							c0.47-0.05,0.91-0.01,1.37-0.11c0.4-0.09,0.83-0.36,1.27-0.34c0.3,0.02,0.55,0.28,0.85,0.34c0.28,0.06,0.6-0.02,0.9,0.06
							c0.23,0.06,0.43,0.24,0.66,0.28c0.36,0.06,0.74-0.06,1.08,0c0.32,0.05,0.59,0.29,0.9,0.34c0.73,0.11,1.56-0.05,2.26,0.11
							c0.27,0.06,0.51,0.22,0.8,0.28c0.28,0.06,0.58-0.01,0.85,0.06c0.37,0.09,0.69,0.52,1.08,0.57c0.73,0.09,1.55-0.38,2.31-0.45
							c0.55-0.05,1.12,0.03,1.7-0.11c0.53-0.13,1.04-0.37,1.51-0.4c0.26-0.01,0.47,0.09,0.71,0.06c0.24-0.04,0.54-0.39,0.8-0.34
							c0.35,0.07,0.29,0.6,0.66,0.74c0.41-0.26,0.82,0.02,1.27,0c0.44-0.02,0.83-0.26,1.32-0.17c0.86,0.16,2.06,1.17,2.73,0.62
							c0.17-0.14,0.13-0.38,0.28-0.74c0.21-0.49,0.62-1.06,0.52-1.76c-0.95,0.02-1.85,0.57-2.92,0.62c-1.09-0.82,0.29-1.33,1.08-1.7
							c0.65-0.31,1.17-0.99,1.98-1.13c0.66-0.11,1.38,0.17,2.17,0.28c0.46,0.06,0.91-0.04,1.18,0.06c0.46,0.17,0.7,0.72,1.08,0.85
							c0.17,0.06,0.44,0.05,0.66,0.11c0.42,0.12,0.8,0.39,1.23,0c0.33,0.07,0.37,0.5,0.71,0.57c0.31-0.2,0.55-0.72,1.04-0.85
							c0.21-0.06,0.43,0.04,0.66,0c0.38-0.07,0.9-0.7,1.13-0.11c-0.1,0.41-0.61,0.47-0.9,0.79c-0.25,0.29-0.64,0.95-0.61,1.25
							c0.06,0.54,0.73,0.33,0.75,1.02c-0.1,0.4-0.48,0.22-0.8,0.4c-0.29,0.16-0.4,0.5-0.71,0.57c-0.86,0.19-1.57-0.26-2.31-0.23
							c-0.03,0.39,0.37,0.61,0.57,0.74c0.67,0.42,1.22,0.37,2.17,0.34c0.49-0.01,1.04,0.17,1.46-0.17c0.26-0.22,0.25-0.7,0.47-0.96
							c0.27-0.32,0.88-0.64,1.27-0.57c0.21,0.04,0.52,0.35,0.52,0.57c0.01,0.51-0.61,0.35-0.61,0.91c0.4,0.29,1.45-0.31,1.51-0.79
							c0.04-0.35-0.34-0.55-0.33-0.91c0.02-0.59,0.69-0.58,0.61-1.19c-0.32-0.31-0.66,0.07-0.99,0c-0.46-0.09-0.88-0.76-1.08-1.19
							c0.2-0.3,0.63-0.1,0.94-0.06c0.35-0.58,0.99-0.8,1.89-0.91c0.32-0.04,0.74-0.19,0.9,0.17c0.08,0.54-0.66,0.86-0.52,1.47
							c0.63,0.19,0.84-0.84,1.37-1.25c0.23-0.18,0.56-0.3,0.9-0.45c0.29-0.13,0.61-0.46,0.85-0.45c0.26,0.01,0.31,0.27,0.57,0.4
							c0.23,0.12,0.54-0.08,0.61,0.28c-0.55,1.14-2.58,0.48-3.11,1.64c0.12,0.78-0.32,1.52,0.05,2.04c0.26,0.37,0.85,0.12,0.99,0.51
							c0.18,0.52-0.57,0.52-0.38,1.13c0.5,0.36,1.09-0.34,1.55-0.62c0.5-0.3,1.12-0.66,1.18-1.36c-0.25-0.57-1.18-0.13-1.32-0.74
							c-0.08-0.33,0.28-1.07,0.38-1.19c0.49-0.66,2.21-1.6,3.44-1.47c0.23,0.03,0.47,0.2,0.71,0.23c0.81,0.1,1.77-0.42,2.4,0
							c0.51-0.36,1.13,0.05,1.84-0.06c0.55,0.39,0.4,1.22,1.23,1.59c0.22,0.1,0.51,0.03,0.8,0.11c0.22,0.06,0.46,0.37,0.71,0.51
							c0.36,0.19,0.63,0.15,0.71,0.45c0.08,0.3-0.26,0.49-0.24,0.79c0.2,0.2,0.03,0.5,0.14,0.79c0.2,0.52,0.72,0.49,1.22,0.74
							c0.36,0.18,1.12,0.71,1.08,1.13c-0.02,0.28-0.72,0.77-0.94,0.91c-0.16,0.09-0.96,0.56-1.23,0.51
							c-0.44-0.08-0.62-1.16-1.23-1.13c-0.26,0.01-0.51,0.2-0.52,0.62c-0.01,0.74,0.69,0.77,0.71,1.42c0.02,0.77-0.35,0.82-0.89,1.3
							c-0.39-0.19-0.72-0.46-1.23-0.51c-0.3,0.43,0.5,0.58,0.24,1.13c-0.76,0.19-1.33-0.26-2.03-0.51
							c-0.22-0.08-0.53-0.05-0.71-0.17c-0.27-0.19-0.35-0.74-0.57-1.02c-0.25-0.33-0.76-0.8-1.18-0.79c-0.58,0-1.43,0.87-1.89,0.06
							c0.32-1.3,1.83-0.33,2.83-0.79c0.37-0.17,0.5-0.64,0.8-0.85c0.61-0.42,1.6-0.48,1.51-1.3c-0.05-0.42-0.53-0.41-0.8-0.62
							c-0.37-0.29-0.65-1.31-1.18-1.36c-0.27-0.03-0.47,0.25-0.75,0.28c-0.61,0.07-1.29-0.29-1.84,0c-0.26,0.18-0.08,0.46-0.28,0.79
							c-0.16,0.27-0.55,0.35-0.71,0.62c-0.18,0.32-0.14,0.72-0.38,0.96c-0.39,0.41-1.21,0.48-1.7,0.68c-0.22,0.09-0.5,0.4-0.71,0.4
							c-0.39,0-0.56-0.63-0.99-0.4c-0.04,0.61,0.53,0.85,0.9,1.13c0.39,0.3,0.8,0.61,0.94,1.13c-0.38,0.98-1-0.05-1.6-0.06
							c-0.67-0.01-1.65,1.53-2.22,0.28c0.14-0.66,0.75-0.76,0.9-1.42c-0.67,0.14-1.25,0.81-2.03,1.02
							c-0.33,0.09-0.65,0.07-0.94,0.17c-0.56,0.2-0.96,0.7-1.55,0.96c-0.23,0.1-0.51,0.07-0.75,0.17c-0.57,0.23-1.25,0.64-1.84,1.02
							c-0.6,0.39-1.28,0.8-1.65,1.19c-0.2,0.21-0.72,0.95-0.71,1.19c0.02,0.34,0.55,0.45,0.57,0.79c-0.01,0.21-0.31,0.66-0.09,0.96
							c0.19,0.28,0.58,0.05,0.99,0.11c0.72,0.11,1.19,0.82,1.74,1.19c0.42,0.28,1.04,0.61,1.51,0.68c0.65,0.1,1.37-0.23,1.46,0.4
							c0.09,0.6-0.61,0.81-0.66,1.19c0.35,0.55-0.24,0.82-0.24,1.3c0,0.39,0.4,0.98,0.75,1.02c0.48,0.05,1.17-0.56,1.37-1.13
							c0.23-0.68,0.13-1.6,0.57-2.1c2.2,0.07,4.05-1.2,3.91-3.91c-0.01-0.27-0.14-0.61-0.09-0.91c0.07-0.44,0.69-0.81,0.61-1.36
							c0.62-0.23,0.59-1.41,1.23-1.59c0.53-0.14,1.14,0.45,1.84,0.4c0.23-0.02,0.52-0.26,0.75-0.23c0.46,0.08,0.74,0.76,1.08,1.08
							c0.31,0.28,0.63,0.19,0.71,0.57c-0.09,0.63-0.46,0.65-0.43,1.25c0.03,0.52,0.48,0.91,0.71,0.96c0.34,0.08,0.84-0.14,1.18-0.34
							c0.63-0.36,1.17-1.44,1.7-1.3c0.42,0.11,0.74,1.69,0.8,2.27c0.07,0.61-0.07,1.08-0.05,1.64c0.06,0.96,1.06,0.86,1.55,1.36
							c0.15,0.15,0.21,0.54,0.33,0.74c0.24,0.38,0.53,0.38,0.57,0.79c0.09,0.98-0.74,1.06-0.66,2.15c-0.17,0.42-0.6,0.4-0.57,0.96
							c0.05,0.89,1.12,0.21,1.41,0.91c0.16,0.37-0.03,0.65-0.14,1.19c0.37,0.52,0.36,1.36-0.28,1.36
							C205.22,185.02,205.12,184.51,204.72,184.4z M153.77,182.93c0.22-0.27-0.09-0.86-0.43-0.62
							C153.31,182.51,153.4,183.01,153.77,182.93z M186.67,188.08c-0.2-0.23-0.84-0.16-1.27-0.11c-0.31,0.04-0.67,0.12-0.71,0.4
							C185.18,188.63,186.51,188.83,186.67,188.08z M184.22,187.12c0.37-0.35,0.21-1.07-0.19-1.19c-0.15-0.05-0.36,0.14-0.61,0.11
							c-0.27-0.02-0.53-0.32-0.75-0.34c-0.38-0.04-0.76,0.18-0.9,0.4c-0.01,0.34,0.21,0.39,0.19,0.74
							c-0.46,0.39-0.22,1.71,0.24,1.76c0.48,0.05,0.73-1.45,1.37-1.59C183.79,186.95,183.91,187.16,184.22,187.12z M183.56,189.38
							c-0.67-0.29-1.29,0.19-1.84,0.28c-0.33,0.05-0.92-0.08-0.85,0.51c0.06,0.48,0.68,0.31,1.04,0.17
							C182.65,190.06,183.12,189.82,183.56,189.38z M181.48,185.08c0.94-0.48-0.19-1.96-0.61-2.1c-0.76-0.24-1.85,0.67-2.73,0.96
							c-0.5,0.16-0.97,0.18-1.08,0.68c0.45,0.89,1.33-0.19,1.98-0.06c0.33,0.07,0.52,0.61,0.85,0.68
							C180.1,185.29,181.39,185.12,181.48,185.08z M180.82,185.98c-0.2-0.28-1.25,0.03-1.56,0.28c-0.21,0.17-0.35,0.6-0.57,0.91
							c-0.22,0.32-0.47,0.57-0.66,0.85c-0.17,0.25-1.12,1.91-0.38,2.1c0.32,0.08,0.97-0.72,1.04-1.02c0.21-1.04,0.6-1.78,1.27-2.27
							C180.36,186.55,180.76,186.59,180.82,185.98z M174.93,179.64c0.53-0.02,0.88-1.89,0-1.64
							C174.34,178.16,174.2,179.67,174.93,179.64z M172.39,222.12c0.02-0.08,0.07-0.14,0.09-0.23
							C172.34,221.33,171.88,222.09,172.39,222.12z M152.45,174.71c0.01-0.11-0.05-0.13-0.05-0.23c-0.14,0-0.31-0.03-0.28,0.17
							C152.19,174.82,152.37,174.85,152.45,174.71z M201.99,165.82c0.23,0.03,0.36-0.05,0.33-0.34
							C202.11,165.3,201.8,165.54,201.99,165.82z M196.57,160.27c-0.06-0.08-0.22-0.08-0.28,0c0,0.07,0,0.15,0,0.23
							C196.48,160.55,196.52,160.4,196.57,160.27z M178.65,164.63c0.16-0.12,0.4-0.29,0.28-0.57c-0.52-0.29-1.4-0.07-2.17-0.17
							c-0.44-0.74-1.16-0.85-1.23,0.34C176.42,165.09,177.75,163.84,178.65,164.63z M170.22,170.47c0.27-0.11,0.64-0.05,0.71-0.4
							c-0.22-0.21-0.45-0.5-0.71-0.51c-0.34-0.01-0.51,0.35-0.85,0.57c-0.4,0.25-0.95,0.31-0.99,0.74
							C169.11,171.03,169.77,170.65,170.22,170.47z M169.98,166.39c0.3-0.06,0.61,0.1,0.8-0.23c-0.23-1.25-1.66-0.48-2.5-0.4
							c-0.18,0.35-0.41,0.64-0.47,1.13C168.46,167.1,169.25,166.54,169.98,166.39z M184.12,224.27c0.37-0.07,0.26-1.1-0.19-0.85
							C183.59,223.61,183.77,224.34,184.12,224.27z"/>
					</g>
				</g>
			</g>
			<g>
				<g>
					<g>
						<path class="st11" d="M152.4,174.49c-0.01,0.1,0.06,0.12,0.05,0.23c-0.08,0.13-0.26,0.11-0.33-0.06
							C152.09,174.45,152.26,174.49,152.4,174.49z"/>
					</g>
				</g>
			</g>
			<g>
				<g>
					<g>
						<path class="st11" d="M150.99,177.83c-0.1,0.37-0.37,0.53-0.66,0.68c-0.09-0.08-0.17-0.18-0.24-0.28
							C150.11,177.69,150.75,177.29,150.99,177.83z"/>
					</g>
				</g>
			</g>
		</g>
		<g>
			<g>
				<path class="st5" d="M158.98,257.64c-5.45-1.43-9.88-3.34-13.29-5.73l6.65-14.93c3.2,2.11,6.92,3.82,11.15,5.11
					c4.22,1.3,8.38,1.94,12.47,1.94c7.77,0,11.66-1.94,11.66-5.83c0-2.05-1.11-3.56-3.32-4.55c-2.22-0.99-5.78-2.03-10.68-3.12
					c-5.39-1.16-9.88-2.4-13.5-3.73c-3.61-1.33-6.72-3.46-9.3-6.39c-2.59-2.93-3.88-6.88-3.88-11.86c0-4.36,1.19-8.3,3.58-11.81
					c2.39-3.51,5.95-6.29,10.68-8.33c4.74-2.04,10.55-3.07,17.43-3.07c4.7,0,9.34,0.53,13.91,1.58c4.57,1.06,8.59,2.61,12.06,4.65
					l-6.24,15.03c-6.82-3.68-13.43-5.52-19.84-5.52c-4.02,0-6.95,0.6-8.79,1.79c-1.84,1.19-2.76,2.74-2.76,4.65
					c0,1.91,1.09,3.34,3.27,4.3c2.18,0.95,5.69,1.94,10.53,2.97c5.45,1.16,9.97,2.4,13.55,3.73c3.58,1.33,6.68,3.44,9.3,6.34
					c2.62,2.9,3.94,6.83,3.94,11.81c0,4.29-1.19,8.18-3.58,11.66c-2.39,3.48-5.97,6.25-10.74,8.33c-4.77,2.08-10.57,3.12-17.38,3.12
					C170.05,259.79,164.43,259.07,158.98,257.64z"/>
				<path class="st5" d="M274.31,242.71v15.64h-57.46v-71.57h56.13v15.64h-36.09v12.06h31.8v15.13h-31.8v13.09H274.31z"/>
			</g>
			<g>
				<g>
					<g>
						<path class="st5" d="M349.53,202.61c-3.19-5.66-7.58-10.09-13.17-13.29c-5.59-3.2-11.89-4.81-18.9-4.81
							c-7.01,0-13.31,1.6-18.9,4.81c-5.59,3.2-9.98,7.63-13.17,13.29c-3.19,5.66-4.78,12.03-4.78,19.12
							c0,7.09,1.59,13.46,4.78,19.12c3.19,5.66,7.58,10.09,13.17,13.29c5.59,3.21,11.89,4.81,18.9,4.81c7.01,0,13.31-1.6,18.9-4.81
							c5.59-3.2,9.98-7.63,13.17-13.29c3.19-5.66,4.78-12.03,4.78-19.12C354.31,214.64,352.72,208.27,349.53,202.61z"/>
						<path class="st14" d="M294.22,192.25c-3.57,2.81-6.52,6.26-8.83,10.35c-1,1.77-1.82,3.62-2.51,5.54l-1.21,4.09
							c-0.7,3.01-1.07,6.17-1.07,9.49c0,7.09,1.59,13.46,4.78,19.12c3.19,5.66,7.58,10.09,13.17,13.29l18.9-32.41L294.22,192.25z"/>
					</g>
				</g>
				<path class="st15" d="M294.22,192.25l23.24,29.47l1.48-37.22C318.94,184.51,305.77,183.03,294.22,192.25z"/>
			</g>
		</g>
	</g>
</g>
<g id="Lines">
	<line class="st12" x1="174.32" y1="300.06" x2="174.32" y2="320.39"/>
	<polyline class="st12" points="73.62,135.96 73.62,158.66 99.22,158.66 	"/>
	<polyline class="st12" points="399.68,138.96 423.43,138.96 423.43,155.59 	"/>
</g>
<g id="Window">
	<g>
		<g>
			<path class="st5" d="M134.96,140.79H31.06c-2.26,0-4.09-1.83-4.09-4.09V78.36c0-2.26,1.83-4.09,4.09-4.09h103.89
				c2.26,0,4.09,1.83,4.09,4.09v58.33C139.05,138.95,137.22,140.79,134.96,140.79z"/>
			<path class="st16" d="M134.96,140.79H31.06c-2.26,0-4.09-1.83-4.09-4.09V78.36c0-2.26,1.83-4.09,4.09-4.09h103.89
				c2.26,0,4.09,1.83,4.09,4.09v58.33C139.05,138.95,137.22,140.79,134.96,140.79z"/>
		</g>
		<path class="st17" d="M43.82,111.22c0.49-0.44,13.61-13.39,13.61-13.39l12.94,6.37l12.65-14.88l12.94,18.64l12.62-8.23"/>
		<rect x="41.81" y="117.05" class="st5" width="6.07" height="13.44"/>
		<rect x="54.3" y="108.17" class="st5" width="6.07" height="22.32"/>
		<rect x="67.02" y="110.41" class="st5" width="6.07" height="20.08"/>
		<rect x="79.98" y="97.83" class="st5" width="6.07" height="32.66"/>
		<rect x="93.07" y="115.15" class="st5" width="6.07" height="15.34"/>
		<path class="st5" d="M48.1,109.69c0,1.8-1.46,3.26-3.26,3.26c-1.8,0-3.26-1.46-3.26-3.26c0-1.8,1.46-3.26,3.26-3.26
			C46.64,106.44,48.1,107.89,48.1,109.69z"/>
		<path class="st5" d="M60.59,97.83c0,1.8-1.46,3.26-3.26,3.26c-1.8,0-3.26-1.46-3.26-3.26c0-1.8,1.46-3.26,3.26-3.26
			C59.13,94.57,60.59,96.03,60.59,97.83z"/>
		<path class="st5" d="M73.62,103.18c0,1.8-1.46,3.26-3.26,3.26c-1.8,0-3.26-1.46-3.26-3.26c0-1.8,1.46-3.26,3.26-3.26
			C72.16,99.92,73.62,101.38,73.62,103.18z"/>
		<path class="st5" d="M86.27,89.31c0,1.8-1.46,3.26-3.26,3.26c-1.8,0-3.26-1.46-3.26-3.26c0-1.8,1.46-3.26,3.26-3.26
			C84.81,86.06,86.27,87.51,86.27,89.31z"/>
		<path class="st5" d="M99.21,107.96c0,1.8-1.46,3.26-3.26,3.26c-1.8,0-3.26-1.46-3.26-3.26c0-1.8,1.46-3.26,3.26-3.26
			C97.75,104.7,99.21,106.16,99.21,107.96z"/>
		<rect x="106.03" y="107.45" class="st5" width="6.07" height="23.04"/>
		<rect x="54.3" y="108.17" class="st14" width="6.07" height="22.32"/>
		<rect x="79.98" y="97.83" class="st14" width="6.07" height="32.66"/>
		<rect x="106.03" y="107.45" class="st14" width="6.07" height="23.04"/>
		<rect x="119.45" y="115.15" class="st5" width="6.07" height="15.34"/>
		<line class="st17" x1="108.57" y1="99.72" x2="122.49" y2="107.45"/>
		<path class="st5" d="M112.55,99.72c0,1.8-1.46,3.26-3.26,3.26c-1.8,0-3.26-1.46-3.26-3.26c0-1.8,1.46-3.26,3.26-3.26
			C111.09,96.46,112.55,97.92,112.55,99.72z"/>
		<circle class="st5" cx="122.49" cy="107.45" r="3.26"/>
	</g>
	<g>
		<g>
			<path class="st5" d="M461.48,257.51h-80.3c-2.73,0-4.94-2.21-4.94-4.94v-91.49c0-2.73,2.21-4.94,4.94-4.94h80.3
				c2.73,0,4.94,2.21,4.94,4.94v91.49C466.42,255.3,464.21,257.51,461.48,257.51z"/>
			<path class="st16" d="M461.48,257.51h-80.3c-2.73,0-4.94-2.21-4.94-4.94v-91.49c0-2.73,2.21-4.94,4.94-4.94h80.3
				c2.73,0,4.94,2.21,4.94,4.94v91.49C466.42,255.3,464.21,257.51,461.48,257.51z"/>
			<path class="st5" d="M466.42,171.66h-90.17v-10.88c0-2.56,2.07-4.63,4.63-4.63h81c2.51,0,4.55,2.04,4.55,4.55V171.66z"/>
		</g>
		<g>
			<path class="st16" d="M463.03,165.04c0,1.87-1.52,3.39-3.39,3.39c-1.87,0-3.39-1.52-3.39-3.39c0-1.87,1.52-3.39,3.39-3.39
				C461.51,161.66,463.03,163.17,463.03,165.04z"/>
			<path class="st16" d="M453.41,165.04c0,1.87-1.52,3.39-3.39,3.39c-1.87,0-3.39-1.52-3.39-3.39c0-1.87,1.52-3.39,3.39-3.39
				C451.89,161.66,453.41,163.17,453.41,165.04z"/>
			<path class="st16" d="M443.79,165.04c0,1.87-1.52,3.39-3.39,3.39c-1.87,0-3.39-1.52-3.39-3.39c0-1.87,1.52-3.39,3.39-3.39
				C442.27,161.66,443.79,163.17,443.79,165.04z"/>
		</g>
		<rect x="400.05" y="184.63" class="st18" width="54.25" height="3.16"/>
		<rect x="400.89" y="191.46" class="st19" width="38.82" height="3.16"/>
		<rect x="385.61" y="184.63" class="st5" width="10.67" height="3.16"/>
		<rect x="400.05" y="199.05" class="st5" width="54.25" height="3.16"/>
		<rect x="385.61" y="199.05" class="st5" width="10.67" height="3.16"/>
		<rect x="400.05" y="229.1" class="st5" width="54.25" height="3.16"/>
		<rect x="400.05" y="238.46" class="st18" width="10.67" height="3.16"/>
		<rect x="400.05" y="206.65" class="st5" width="54.25" height="3.16"/>
		<rect x="385.61" y="206.65" class="st19" width="10.67" height="3.16"/>
		<rect x="400.05" y="213.28" class="st18" width="38.82" height="3.16"/>
		<rect x="400.05" y="220.14" class="st19" width="19.41" height="3.16"/>
	</g>
	<g>
		<g>
			<g>
				<path class="st5" d="M227.55,384.53h-68.18c-2.73,0-4.94-2.21-4.94-4.94v-55.76c0-2.73,2.21-4.94,4.94-4.94h68.18
					c2.73,0,4.94,2.21,4.94,4.94v55.76C232.49,382.32,230.28,384.53,227.55,384.53z"/>
				<path class="st16" d="M227.55,384.53h-68.18c-2.73,0-4.94-2.21-4.94-4.94v-55.76c0-2.73,2.21-4.94,4.94-4.94h68.18
					c2.73,0,4.94,2.21,4.94,4.94v55.76C232.49,382.32,230.28,384.53,227.55,384.53z"/>
				<path class="st5" d="M232.49,330.34h-78.05v-6.82c0-2.56,2.07-4.63,4.63-4.63h68.88c2.51,0,4.55,2.04,4.55,4.55V330.34z"/>
			</g>
			<g>
				<path class="st16" d="M228.08,325.46c0,1.38-1.12,2.5-2.5,2.5c-1.38,0-2.5-1.12-2.5-2.5c0-1.38,1.12-2.5,2.5-2.5
					C226.96,322.96,228.08,324.08,228.08,325.46z"/>
				<path class="st16" d="M220.98,325.46c0,1.38-1.12,2.5-2.5,2.5c-1.38,0-2.5-1.12-2.5-2.5c0-1.38,1.12-2.5,2.5-2.5
					C219.86,322.96,220.98,324.08,220.98,325.46z"/>
				<path class="st16" d="M213.88,325.46c0,1.38-1.12,2.5-2.5,2.5c-1.38,0-2.5-1.12-2.5-2.5c0-1.38,1.12-2.5,2.5-2.5
					C212.76,322.96,213.88,324.08,213.88,325.46z"/>
			</g>
		</g>
		<g>
			<path class="st20" d="M192.24,357.26l6.77-18.6c2.52,0.92,4.83,2.34,6.79,4.18c1.96,1.84,3.52,4.05,4.59,6.51L192.24,357.26z"/>
			<path class="st5" d="M192.24,357.26l5.77,18.93c-1.87,0.57-3.81,0.86-5.77,0.86c-10.86,0-19.79-8.93-19.79-19.79
				c0-10.86,8.93-19.79,19.79-19.79c2.28,0,4.54,0.39,6.68,1.16L192.24,357.26z"/>
			<path class="st5" d="M192.24,357.26l18.18-7.82c1.06,2.47,1.61,5.13,1.61,7.82c0,8.66-5.68,16.35-13.95,18.91L192.24,357.26z"/>
			<path class="st14" d="M192.24,357.26l18.18-7.82c1.06,2.47,1.61,5.13,1.61,7.82c0,8.66-5.68,16.35-13.95,18.91L192.24,357.26z"/>
		</g>
	</g>
</g>
<g id="Character_2">
	<g>
		<g>
			<g>
				<polygon class="st21" points="382.95,377.72 380.83,456.66 383.82,456.66 387.3,377.72 				"/>
				<polygon class="st22" points="382.95,377.72 380.83,456.66 383.82,456.66 387.3,377.72 				"/>
				<polygon class="st21" points="399.24,379.52 425.96,379.52 434.41,456.66 437.87,456.66 430.08,374.03 399.24,374.85 				"/>
				<polygon class="st22" points="399.24,379.52 425.96,379.52 434.41,456.66 437.87,456.66 430.08,374.03 399.24,374.85 				"/>
				<polygon class="st21" points="397.3,374.85 359.45,374.85 357.5,374.85 349.18,456.66 351.06,456.66 351.43,453.69 
					351.13,456.66 353.01,456.66 362.57,379.7 393.69,379.7 393.94,456.66 395.89,456.66 396.04,456.66 397.99,456.66 
					399.24,374.85 				"/>
				<polygon class="st22" points="397.3,374.85 359.45,374.85 357.5,374.85 349.18,456.66 351.06,456.66 351.43,453.69 
					351.13,456.66 353.01,456.66 362.57,379.7 393.69,379.7 393.94,456.66 395.89,456.66 396.04,456.66 397.99,456.66 
					399.24,374.85 				"/>
				<path class="st21" d="M383.57,366.44l8.38-58.49c0.45-4.27,3.63-7.48,7.4-7.48h39.01c0.98,0,1.77,0.91,1.77,2.02v61.7
					c0,8.58-6.1,15.54-13.62,15.54H383h-34.52c-0.47,0-0.85-0.44-0.85-0.97v0c0-3.85,2.73-6.96,6.1-6.96h24.53
					C380.97,371.8,383.25,369.5,383.57,366.44z"/>
				<path class="st16" d="M440.13,302.5v61.69c0,8.59-6.1,15.55-13.62,15.55h-78.02c-0.47,0-0.87-0.45-0.87-0.98
					c0-1.93,0.69-3.67,1.79-4.92c1.1-1.27,2.64-2.04,4.32-2.04h24.54c0.55,0,1.08-0.09,1.59-0.28c1.96-0.69,3.45-2.64,3.71-5.08
					l8.39-58.47c0.44-4.28,3.63-7.49,7.4-7.49h39.01c0.66,0,1.24,0.41,1.53,1.02C440.04,301.79,440.13,302.12,440.13,302.5z"/>
				<path class="st9" d="M432.92,300.48v55.5c0,8.58-6.1,15.54-13.62,15.54h-39.44c1.96-0.69,3.45-2.64,3.71-5.08l8.39-58.47
					c0.44-4.28,3.63-7.49,7.4-7.49H432.92z"/>
			</g>
		</g>
		<g>
			<g>
				<g>
					<g>
						<g>
							<polygon class="st5" points="385.83,427.91 389.42,448.63 380.91,452.06 373.83,430.33 							"/>
						</g>
					</g>
				</g>
			</g>
			<g>
				<g>
					<g>
						<g>
							<g>
								<g>
									<path class="st21" d="M386.78,446.93c-0.57,1.56-1.95,2.31-3.44,2.02l-0.99-1.4c-0.85-1.2-2.04-1.64-3.34-0.75
										c-0.64,0.43-1.19,1.67-1.13,3.19c0.11,2.74-0.98,4.51-0.98,4.51s-4.66,6.26-6.54,8.08c-1.13,1.09-2.6,2.61-2.83,4.52
										c-0.07,0.55-0.07,1.15,0.01,1.83c0.06,0.56,0.6,1.61,0.62,1.64l15.78-8.02c0,0,1.13-1.76,1.83-2.08
										c1.24-0.57,2.32,0.21,2.32,0.21l5.76-2.87c0,0-0.34-0.94-0.84-2.31l0,0c-0.22-0.62-0.48-1.32-0.75-2.06
										c-1.15-3.19-2.49-7.27-2.83-8.17C388.86,443.68,386.78,446.93,386.78,446.93z"/>
									<g>
										<g>
											<g>
												<g>
													<path class="st5" d="M374.32,457.73c0.04-0.1,0.14-0.16,0.25-0.15c0.5,0.04,0.98,0.22,1.4,0.52
														c0.22,0.16-0.02,0.54-0.24,0.38c-0.38-0.27-0.8-0.43-1.23-0.47C374.36,458,374.27,457.87,374.32,457.73
														C374.32,457.73,374.32,457.73,374.32,457.73z"/>
												</g>
											</g>
										</g>
									</g>
									<g>
										<g>
											<g>
												<g>
													<path class="st5" d="M375.21,456.45c0.04-0.1,0.14-0.16,0.25-0.15c0.5,0.05,0.98,0.22,1.4,0.52
														c0.22,0.16-0.02,0.54-0.24,0.38c-0.38-0.27-0.8-0.43-1.23-0.47C375.24,456.73,375.16,456.59,375.21,456.45
														C375.21,456.46,375.21,456.45,375.21,456.45z"/>
												</g>
											</g>
										</g>
									</g>
									<g>
										<g>
											<g>
												<g>
													<path class="st5" d="M376.15,455.2c0.04-0.1,0.14-0.16,0.25-0.15c0.5,0.05,0.98,0.22,1.4,0.52
														c0.22,0.16-0.02,0.54-0.24,0.38c-0.38-0.27-0.8-0.43-1.23-0.47C376.19,455.48,376.1,455.34,376.15,455.2
														C376.15,455.21,376.15,455.21,376.15,455.2z"/>
												</g>
											</g>
										</g>
									</g>
								</g>
							</g>
						</g>
					</g>
				</g>
			</g>
			<path class="st22" d="M367.51,468.09c0,0.28,0.02,0.58,0.05,0.89c0.06,0.56,0.6,1.61,0.62,1.64l15.78-8.02
				c0,0,1.13-1.76,1.83-2.08c1.24-0.57,2.32,0.21,2.32,0.21l5.76-2.87c0,0-0.34-0.94-0.84-2.31l0,0c-0.04-0.11-0.08-0.23-0.12-0.34
				L367.51,468.09z"/>
			<path class="st23" d="M376.39,455.31c-0.23-0.57-0.46-1.15-0.79-1.67c-0.33-0.52-0.76-1-1.3-1.28c-0.25-0.13-0.57-0.22-0.82-0.08
				c-0.26,0.15-0.33,0.5-0.29,0.8c0.07,0.58,0.42,1.09,0.89,1.44C374.54,454.87,375.83,455.19,376.39,455.31"/>
			<path class="st23" d="M376.46,455.28c-0.04-0.61-0.08-1.23-0.01-1.85c0.07-0.61,0.25-1.23,0.62-1.72
				c0.17-0.23,0.42-0.45,0.7-0.42c0.3,0.02,0.51,0.31,0.61,0.59c0.19,0.55,0.09,1.17-0.17,1.68
				C377.94,454.08,376.92,454.92,376.46,455.28"/>
		</g>
		<g>
			<g>
				<g>
					<g>
						<g>
							<polygon class="st5" points="358.48,423.48 362.07,444.2 353.55,447.63 346.48,425.9 							"/>
						</g>
					</g>
				</g>
			</g>
			<g>
				<g>
					<g>
						<g>
							<g>
								<g>
									<path class="st21" d="M359.42,442.5c-0.57,1.56-1.95,2.31-3.44,2.02l-0.99-1.4c-0.85-1.2-2.04-1.64-3.34-0.75
										c-0.64,0.43-1.19,1.67-1.13,3.19c0.11,2.74-0.98,4.51-0.98,4.51s-4.66,6.26-6.54,8.08c-1.13,1.09-2.6,2.61-2.83,4.52
										c-0.07,0.55-0.07,1.15,0.01,1.83c0.06,0.56,0.6,1.61,0.62,1.64l15.78-8.02c0,0,1.13-1.76,1.83-2.08
										c1.24-0.57,2.32,0.21,2.32,0.21l5.76-2.87c0,0-0.34-0.94-0.84-2.31l0,0c-0.22-0.62-0.48-1.32-0.75-2.06
										c-1.15-3.19-2.49-7.27-2.83-8.17C361.51,439.26,359.42,442.5,359.42,442.5z"/>
									<g>
										<g>
											<g>
												<g>
													<path class="st5" d="M346.97,453.3c0.04-0.1,0.14-0.16,0.25-0.15c0.5,0.05,0.98,0.22,1.4,0.52
														c0.22,0.16-0.02,0.54-0.24,0.38c-0.38-0.27-0.8-0.43-1.23-0.47C347,453.57,346.91,453.44,346.97,453.3
														C346.97,453.3,346.97,453.3,346.97,453.3z"/>
												</g>
											</g>
										</g>
									</g>
									<g>
										<g>
											<g>
												<g>
													<path class="st5" d="M347.85,452.03c0.04-0.1,0.14-0.16,0.25-0.15c0.5,0.05,0.98,0.22,1.4,0.52
														c0.22,0.16-0.02,0.54-0.24,0.38c-0.38-0.27-0.8-0.43-1.23-0.47C347.89,452.3,347.8,452.16,347.85,452.03
														C347.85,452.03,347.85,452.03,347.85,452.03z"/>
												</g>
											</g>
										</g>
									</g>
									<g>
										<g>
											<g>
												<g>
													<path class="st5" d="M348.8,450.78c0.04-0.1,0.14-0.16,0.25-0.15c0.5,0.05,0.98,0.22,1.4,0.52
														c0.22,0.16-0.02,0.54-0.24,0.38c-0.38-0.27-0.8-0.43-1.23-0.47C348.83,451.05,348.74,450.91,348.8,450.78
														C348.8,450.78,348.8,450.78,348.8,450.78z"/>
												</g>
											</g>
										</g>
									</g>
								</g>
							</g>
						</g>
					</g>
				</g>
			</g>
			<path class="st22" d="M340.16,463.66c0,0.28,0.02,0.58,0.05,0.89c0.06,0.56,0.6,1.61,0.62,1.64l15.78-8.02
				c0,0,1.13-1.76,1.83-2.08c1.24-0.57,2.32,0.21,2.32,0.21l5.76-2.87c0,0-0.34-0.94-0.84-2.31l0,0c-0.04-0.11-0.08-0.23-0.12-0.34
				L340.16,463.66z"/>
			<path class="st23" d="M349.04,450.88c-0.23-0.57-0.46-1.15-0.79-1.67c-0.33-0.52-0.76-1-1.3-1.28c-0.25-0.13-0.57-0.22-0.82-0.08
				c-0.26,0.15-0.33,0.5-0.29,0.8c0.07,0.58,0.42,1.09,0.89,1.44C347.18,450.45,348.47,450.76,349.04,450.88"/>
			<path class="st23" d="M349.1,450.85c-0.04-0.61-0.08-1.23-0.01-1.85c0.07-0.61,0.25-1.23,0.62-1.72c0.17-0.23,0.42-0.45,0.7-0.42
				c0.3,0.02,0.51,0.31,0.61,0.59c0.19,0.55,0.09,1.17-0.17,1.68C350.58,449.65,349.56,450.49,349.1,450.85"/>
		</g>
		<g>
			<path class="st21" d="M427.11,334.64c0,0-20.53,20.07-31.19,30.04c-10.67,9.97-44.24,8.49-44.24,8.49l12.67,64.66l-17.4,2.1
				c0,0-16.41-47.98-22.78-73.63c-0.92-3.72,0.8-9.33,2.48-11.7c7.03-9.9,59.24-11.58,59.24-11.58l1.15-6.97L427.11,334.64z"/>
			<path class="st24" d="M354.23,386.19c0,0-9.19-16.19-11.15-22.67c-1.96-6.48-1.36-8.9,3.47-10.85
				c4.82-1.96,38.98-6.05,38.98-6.05l0.54-2.82l7.04,7.69c0,0-40.39,2.7-39.94,9.33C353.63,367.44,354.23,386.19,354.23,386.19z"/>
			<path class="st21" d="M427.11,334.64c0,0,4.22,24.93-4.39,31.32c-8.22,6.1-42.98,9.73-42.98,9.73l10.66,65.01l-17.03,2.99
				c0,0-16.57-49.56-22.95-75.21c-0.92-3.72-0.13-8.51,1.55-10.88c7.03-9.9,58.78-12.91,58.78-12.91L427.11,334.64z"/>
			<path class="st24" d="M379.75,375.69c0,0-2.72-3.95-4.77-5.58c0,0,5.89,1.96,7.01,5.45L379.75,375.69z"/>
		</g>
		<path class="st25" d="M345.3,335.21l3.74,5.55c0,0,23.48-7.94,26.25-10.6c2.77-2.66,6.21-26.58,6.21-26.58v-16.95l0.28-12.28
			c0,0-9.73,2.36-10.51,10.19c-0.23,2.32-4.4,36.74-4.4,36.74L345.3,335.21z"/>
		<g>
			<g>
				<path class="st21" d="M352.99,349.12h16.6h17.61c0,0,0,0.01,0,0.01c-0.01,1.31-1.47,2.36-3.26,2.35h-17.6h-10.07
					c-0.02,0-0.03,0-0.05,0c0,0,0,0,0,0h-28.02c-1.78-0.01-3.21-1.07-3.2-2.37H352.99z"/>
			</g>
			<path class="st21" d="M327.7,351.35h31.26c0.54,0,0.97-0.36,0.97-0.79c0-0.08-0.02-0.16-0.05-0.24l-13.9-31.88
				c-0.35-0.91-1.4-1.53-2.59-1.54h-31.28c-0.53,0-0.96,0.34-0.96,0.77c0,0.09,0.02,0.18,0.06,0.26l13.9,31.88
				C325.47,350.72,326.51,351.34,327.7,351.35z"/>
			<path class="st5" d="M312.11,316.9h31.28c1.19,0,2.23,0.63,2.59,1.54l13.38,30.68h10.24h17.61c0,0,0,0.01,0,0.01
				c-0.01,1.31-1.47,2.36-3.26,2.35h-17.6h-10.07c-0.02,0-0.03,0-0.05,0c0,0,0,0,0,0h-28.02c-0.56,0-1.08-0.12-1.54-0.31
				c-0.73-0.24-1.31-0.73-1.56-1.36l-13.9-31.88c-0.04-0.08-0.06-0.17-0.06-0.26C311.15,317.25,311.58,316.9,312.11,316.9z"/>
			<path class="st11" d="M330.89,333.87c0.68,1.53,2.04,2.58,3.07,2.37c1.02-0.21,1.29-1.61,0.64-3.14
				c-0.66-1.53-2.04-2.56-3.06-2.35C330.51,330.97,330.21,332.3,330.89,333.87z"/>
			<g class="st14">
				<line class="st26" x1="359.92" y1="349.12" x2="359.35" y2="349.12"/>
				<path d="M345.97,318.44l13.38,30.68h-1.45l-14.52-32.21C344.57,316.91,345.62,317.53,345.97,318.44z"/>
			</g>
			<path class="st16" d="M312.11,316.9h31.28c1.19,0,2.23,0.63,2.59,1.54l13.38,30.68h10.24h17.61c0,0,0,0.01,0,0.01
				c-0.01,1.31-1.47,2.36-3.26,2.35h-17.6h-10.07c-0.02,0-0.03,0-0.05,0c0,0,0,0,0,0h-28.02c-0.56,0-1.08-0.12-1.54-0.31
				c-0.73-0.24-1.31-0.73-1.56-1.36l-13.9-31.88c-0.04-0.08-0.06-0.17-0.06-0.26C311.15,317.25,311.58,316.9,312.11,316.9z"/>
		</g>
		<g>
			<g>
				<path class="st5" d="M383.33,343.11c0,0-5.44-6.54-3.69-7.81l0.63-60.5l1.51-0.46l12.3-2.81l12.7-2.74l6.67,1.38l11.74,12.94
					c0,0,1.65,31.57,1.74,33.01c0.11,1.76,0.95,24.63,0.95,24.63C407.77,345.17,383,344.67,383.33,343.11z"/>
			</g>
			<g>
				<g>
					<path class="st25" d="M389.9,272.59l5.12,7.67l9.41-11.61c0,0-2.51-1.94-4.62-3.75c-1.68-1.44-6.22-7.18-6.22-7.18l-1.24,1.09
						l-7.91,6.83c0,0,5.65,3.22,5.51,4.43c0.22,1.04,0.46,2.11-0.12,2.52"/>
					<path class="st24" d="M389.94,270.07c0.22,1.17,0.34,1.41-0.04,2.52c5.92-1.24,3.09-13.74,3.09-13.74h-0.65l-7.91,6.83
						C384.43,265.68,390.11,268.93,389.94,270.07z"/>
				</g>
				<g>
					<g>
						<g>
							<path class="st21" d="M369.16,246.63c-0.81,3.37,0.23,10.12,4.69,7.59C378.31,251.7,370.55,240.83,369.16,246.63z"/>
							<path class="st25" d="M393.19,249.46c1.1,8.45,1.89,13.2-1.52,18.26c-5.13,7.62-15.93,5.83-19.55-2.15
								c-3.25-7.18-4.5-19.8,3.07-24.63C382.65,236.19,392.09,241.01,393.19,249.46z"/>
							<path class="st21" d="M392.69,238.1c-2.03-4.38-8.48-5.77-11.25-2.8c-0.41,0.44,3.47,0.99,3.02,0.92l1.56,6.74
								c0.47-0.21,1.56,0.19,2.36,1.63c0,0,0.48,9.08,4.82,12.09C401.45,250.76,399.27,238.84,392.69,238.1z"/>
							<path class="st25" d="M397.83,255.79c-0.25,2.28-1.54,4.22-3.04,5.36c-2.25,1.72-4.45-0.05-4.72-2.73
								c-0.24-2.41,0.64-6.21,3.33-6.88C396.05,250.89,398.12,253.18,397.83,255.79z"/>
							<path class="st21" d="M381.7,254.18c0.16,0.86-0.16,1.63-0.72,1.73c-0.56,0.1-1.15-0.51-1.31-1.36
								c-0.16-0.86,0.16-1.63,0.72-1.73C380.94,252.71,381.53,253.32,381.7,254.18z"/>
							<path class="st21" d="M373.34,255.96c0.16,0.85-0.16,1.63-0.72,1.73c-0.56,0.1-1.15-0.51-1.31-1.36
								c-0.16-0.85,0.16-1.63,0.72-1.73C372.59,254.49,373.18,255.1,373.34,255.96z"/>
							<path class="st27" d="M375.98,254.96c0,0-1.89,4.77-2.42,6.67c1.4,0.85,3.35-0.05,3.35-0.05L375.98,254.96z"/>
							<path class="st21" d="M382.67,249.24c-0.12,0.08-0.27,0.1-0.41,0.04c-1.65-0.77-2.94,0-2.96,0
								c-0.19,0.12-0.44,0.06-0.56-0.13c-0.12-0.19-0.06-0.44,0.13-0.56c0.07-0.04,1.68-1.01,3.73-0.05c0.2,0.1,0.29,0.34,0.2,0.54
								C382.77,249.14,382.73,249.2,382.67,249.24z"/>
							<path class="st21" d="M369.54,254.08c-0.08-0.01-0.15-0.04-0.22-0.09c-0.17-0.14-0.2-0.4-0.06-0.57
								c1.43-1.73,3.29-1.52,3.37-1.52c0.22,0.03,0.38,0.23,0.36,0.45c-0.02,0.22-0.22,0.38-0.45,0.36
								c-0.08-0.01-1.51-0.16-2.66,1.23C369.81,254.05,369.67,254.1,369.54,254.08z"/>
						</g>
						<path class="st28" d="M392.37,238.38c1.02-1.24,2.34-2.18,3.48-2.53"/>
						<path class="st28" d="M392.5,238.25c0.51-1.58,0.42-3.35-0.26-4.87"/>
						<path class="st29" d="M395.48,253.85c-0.43-0.43-1.15-0.49-1.71-0.23c-0.56,0.26-0.96,0.77-1.22,1.32
							c-0.32,0.66-0.45,1.41-0.4,2.15"/>
					</g>
					<path class="st21" d="M379,263.58L379,263.58c1.95-0.5,3.54-1.91,4.26-3.78c0.04-0.11-0.02-0.23-0.13-0.27c0,0-0.01,0-0.01,0
						c-0.1-0.04-0.22,0.02-0.25,0.12c0,0,0,0.01,0,0.01l0,0c-0.69,1.73-2.16,3.02-3.96,3.5c-0.1,0.04-0.15,0.16-0.11,0.26
						c0,0,0,0,0,0.01l0,0c0.04,0.1,0.16,0.15,0.26,0.11c0,0,0,0,0.01,0L379,263.58z"/>
				</g>
			</g>
			<path class="st5" d="M387.71,272.99c0.16-0.24,2.42-1.85,2.42-1.85l4.51,3.56l6.48-8.98l5.66,3.08l-11.96,15.05L387.71,272.99z"
				/>
			<path class="st30" d="M394.6,276.2c-0.94,11.46-1.58,22.9-1.48,33.92c0.1,11.02-1.85,23.24,1.72,33.67"/>
			<polygon class="st24" points="412.96,312.03 407.27,312.58 409.22,288.37 410.62,309.06 426.58,309.72 			"/>
			<path class="st24" d="M387.71,272.99c0.12,0.18,2.75,5.39,3.86,7.59c0.18,0.37,0.72,0.34,0.86-0.05l2.01-5.44l-2.48,4.23
				L387.71,272.99z"/>
			<path class="st24" d="M394.84,274.78c0.17,0.17,4.61,4.94,4.61,4.94l6.53-10.92l-5.58,12.45c-0.26,0.58-1.05,0.63-1.39,0.1
				L394.84,274.78z"/>
			<path class="st25" d="M413,299.1c0,0-0.04,17.47-0.07,17.65c-0.04,0.19-30.45,12.89-30.45,12.89c0,0.45,4.52,5.73,4.52,5.73
				s33.17-4.36,36.92-10.01c3.2-4.83,3.7-26.49,3.7-26.49L413,299.1z"/>
			<path class="st5" d="M413.44,270.18c12.11,1.02,15.09,10.04,14.86,23.78c-0.21,13.23,0.11,16.16,0.11,16.16l-18.17-0.4
				c0,0-0.3-23.6-0.3-25.88C409.95,281.57,413.44,270.18,413.44,270.18z"/>
			<path class="st5" d="M382.11,315.4l-16.65-4.19c0,0,4.56-23.69,5.34-27.66c0.88-4.5,6.33-7.91,10.98-9.2l3.92,15.22L382.11,315.4
				z"/>
			<path class="st24" d="M379.64,314.78c-0.18-0.04-2.69-24.18-2.69-24.18l-1.38,23.15L379.64,314.78z"/>
			<g>
				<path class="st25" d="M366.51,346.43c0.15-1.55,3.08-8.38,4.58-10.64c1.5-2.27,11.38-6.15,11.38-6.15l5.8,4.19
					c0,0-0.01,2.42-2.06,4.18c-1.18,1.01-5.17,2.04-5.17,2.04s0.33,1.23,0.34,2.61c0.01,1.53-0.3,3.42-1.56,3.36
					c-1.26-0.06-1.72-4.11-1.78-4.7c0.06,0.59,0.41,4.74-1.28,4.89c-1.62,0.14-1.89-4.19-1.89-4.19s-0.08,2.02-0.14,3.05
					c-0.05,1.03-1.08,1.93-2.04,0.78c-1.11-1.33-1.21-3.62-1.21-3.62s-0.88,1.34-2.19,4.27
					C368.36,348.59,366.39,347.74,366.51,346.43z"/>
				<path class="st30" d="M378.1,341.93c-0.04-0.78-0.08-1.56,0.03-2.33c0.11-0.77,0.37-1.54,0.87-2.14"/>
				<path class="st30" d="M374.8,342.48c-0.04-0.78-0.08-1.56,0.03-2.33c0.11-0.77,0.37-1.54,0.87-2.14"/>
				<path class="st30" d="M371.52,342.19c-0.04-0.78-0.08-1.56,0.03-2.33c0.11-0.77,0.37-1.54,0.87-2.14"/>
			</g>
		</g>
		<path class="st21" d="M390.87,235.09c-0.77-0.97-1.99-1.46-3.21-1.67c-1.64-0.27-3.35-0.16-4.95,0.34
			c-1.83,0.57-3.51,1.63-5.4,1.93c-0.23,0.04-0.5,0.05-0.67-0.11c-0.12-0.11-0.16-0.28-0.21-0.44c-0.33-1.03-1.36-1.78-2.44-1.79
			c-1.08,0-2.12,0.75-2.45,1.78c-1.04-1.62-3.51-1.81-5.15-0.8c-1.64,1.01-2.59,2.14-3.13,3.99c-0.19,0.64-0.27,2.05-0.03,3.11
			c0.48,2.11,1.63,3.41,3.48,4.53c2.49,1.51,5.43,2.55,8.3,2.03c3.82-0.7,6.72-3.99,10.5-4.91c1.43-0.35,3.12-0.26,4.11,0.82
			l3.08-5.8C392.69,237.12,391.74,236.19,390.87,235.09z"/>
	</g>
</g>
<g id="Character_1">
	<g>
		<g>
			<path class="st31" d="M74.57,203.04c0.97,4.84,3.17,14.52-0.17,17.76c0,0,1.35,4.84,10.29,4.84c9.82,0,4.66-4.84,4.66-4.84
				c-5.37-1.28-5.26-5.26-4.35-8.99L74.57,203.04z"/>
			<path class="st21" d="M94.82,194.17c-0.12,0-0.23-0.05-0.32-0.13c-0.17-0.17-0.17-0.44,0-0.61c1-0.97,2.41-1.41,3.78-1.17
				c0.23,0.05,0.37,0.28,0.32,0.51c0,0,0,0.01,0,0.01c-0.05,0.23-0.27,0.38-0.51,0.33c0,0-0.01,0-0.01,0
				c-1.09-0.19-2.21,0.16-2.99,0.94C95.02,194.12,94.92,194.17,94.82,194.17z"/>
			<path class="st32" d="M96.16,199.77c0.26,1.8,0.77,3.56,1.51,5.22c-0.87,0.36-1.86,0.31-2.69-0.13L96.16,199.77z"/>
			<path class="st21" d="M95.78,198.38c-0.16,0.72,0.09,1.4,0.56,1.51c0.47,0.11,0.99-0.38,1.1-1.1c0.11-0.71-0.08-1.39-0.55-1.51
				C96.42,197.16,95.96,197.65,95.78,198.38z"/>
			<path class="st21" d="M96.74,197.26l1.84-0.09C98.58,197.17,97.38,198.32,96.74,197.26z"/>
			<path class="st31" d="M72.14,190.16c-1.5,9-2.32,12.77,1.1,18.39c5.15,8.43,16.51,8.38,20.65,0c3.74-7.51,5.56-20.96-2.29-26.54
				c-5.53-4-13.25-2.76-17.25,2.77C73.19,186.36,72.43,188.21,72.14,190.16z"/>
			<path class="st21" d="M83.2,177.74c7.51-3.08,15.35-1.02,16.11,6.79c0.76,7.81-8.04,15.24-8.04,15.24L83.2,177.74z"/>
			<path class="st31" d="M86.82,198.01c-0.21,1.76,0.29,3.52,1.37,4.92c1.46,1.83,3.54,0.87,4.28-1.22c0.67-1.87,0.7-5.1-1.3-6.18
				c-1.46-0.75-3.26-0.18-4.02,1.29C86.95,197.18,86.84,197.59,86.82,198.01z"/>
			<path class="st33" d="M90.35,197.77c-0.37-0.05-0.73,0.17-0.93,0.48s-0.27,0.69-0.28,1.06c-0.02,1.13,0.5,2.25,1.37,2.97"/>
		</g>
		<g>
			<path class="st31" d="M64.79,241.77c-0.46-0.01-3.6,20.05-3.39,20.64c0.78,2.17,23.94-2.68,23.94-2.68l1.46,6.19
				c0,0-10.11,4.91-20.99,6.69c-11.23,1.83-15.42-3.14-15.48-10.75c-0.05-6.98,2.84-23.94,2.84-23.94L64.79,241.77z"/>
		</g>
		<g>
			<path class="st21" d="M139.18,230.89c-2.75,4.08-5.86,7.88-9.02,11.64c-1.62,1.85-24.23,26.79-25.9,28.59l-2.49,2.72
				c-0.88,1.08-2.28,1.69-3.8,1.65c-1.67,0-3.14-1.21-3.37-2.75c-0.25-1.4,0.21-2.78,1.24-3.73l2.56-2.66
				c1.69-1.79,24.51-26.56,26.26-28.31c3.56-3.43,6.36-7.57,10.33-10.67c0.88-0.71,3.09,0.18,3.92,1.04
				C139.6,229.12,139.71,230.14,139.18,230.89L139.18,230.89z"/>
		</g>
		<g>
			<path class="st31" d="M103.61,276.96l-35.52,4.99c-5.25,6.88-5.85,17.6-5.49,29c0.96,17.83,5.12,44.26,5.53,50.27
				c0.02,0,0.39,0,0.41,0c-0.03,4.6-2.9,20.11-2.9,27.01c-0.01,23.53,2.76,60.44,2.76,60.44l2.14,6.35l7.22-5.47
				c0,0,12.43-82.59,12.59-87.49c0.02-0.54,0.04-1.1,0.06-1.66l0.49-8.56c0.53-7.83,1.23-16.54,1.45-25.33l0.81-14.27
				c10.36-3.73,15.13-16.37,16.88-19.04C107.04,283.23,106.22,281.27,103.61,276.96z"/>
			<g>
				<g>
					<g>
						<g>
							<g>
								<path class="st31" d="M108.98,288.95c0,0,5.3,18.25,9.79,61.89c0.86,8.33-1.94,20.92-3.32,28.7l-13.79,70.5l-9.41,1.34
									c-2.2-33.87,1.31-76.05,4.42-89.52l-20.48-63.5L108.98,288.95z"/>
							</g>
						</g>
					</g>
				</g>
			</g>
			<g>
				<g>
					<path class="st21" d="M78.91,448.34h-3.05c-0.69,0-1.33,0.35-1.74,0.91c-1.76,2.4-3.08,1.5-5-0.76
						c-1.22-0.14-1.54,1.26-1.64,1.63l-2.28,8.3c-0.2,0.69,0.2,1.42,0.9,1.61c0.12,0.04,0.25,0.05,0.38,0.05c3.71,0,5.46,0,10.07,0
						h14.11c3.85,0,4.64-3.88,3.06-4.24c-7.12-1.57-12.17-3.67-14.37-5.74C78.94,449.74,79.36,449.47,78.91,448.34z"/>
					<path class="st5" d="M85.54,450.7c0.32-0.23,0.51-0.6,0.52-1c0.03-0.21-0.07-0.42-0.25-0.54c-0.96-0.68-4.77,1.11-5.2,1.32
						c-0.05,0.02-0.09,0.05-0.1,0.1c-0.03,0.09,0.01,0.18,0.1,0.22c0.94,0.22,1.9,0.35,2.86,0.37
						C84.19,451.24,84.91,451.08,85.54,450.7z M85.57,449.46c0.08,0.05,0.12,0.14,0.1,0.23c-0.02,0.29-0.15,0.55-0.38,0.73
						c-0.87,0.65-2.96,0.37-4.09,0.16C82.79,449.88,85.04,449.09,85.57,449.46z"/>
					<path class="st5" d="M80.73,450.84c1.15-0.48,3.55-2.36,3.42-3.36c-0.02-0.21-0.17-0.46-0.69-0.53
						c-2.09-0.24-2.99,3.52-2.99,3.68c-0.02,0.06,0,0.13,0.05,0.18c0.04,0.01,0.08,0.01,0.12,0L80.73,450.84z M83.39,447.27
						c0.39,0.04,0.39,0.18,0.39,0.23c0.11,0.61-1.63,2.17-2.88,2.83c0.26-0.88,1.03-3.07,2.35-3.07L83.39,447.27z"/>
					<path class="st34" d="M81.03,450.7c-1.05,0.14-2.03,0.77-2.59,1.67"/>
					<path class="st34" d="M82.93,452.13c-1.05,0.14-2.03,0.77-2.59,1.67"/>
					<path class="st34" d="M85.29,453.33c-1.05,0.14-2.03,0.77-2.59,1.67"/>
				</g>
				<polygon class="st14" points="90.02,454.93 89.83,460.03 86.91,460.03 88.52,454.5 				"/>
			</g>
			<g>
				<g>
					<path class="st21" d="M102.13,448.53h-3.05c-0.69,0-1.33,0.35-1.74,0.91c-1.76,2.4-3.08,1.5-5-0.76
						c-1.22-0.14-1.54,1.26-1.64,1.63l-2.28,8.3c-0.2,0.69,0.2,1.42,0.9,1.61c0.12,0.04,0.25,0.05,0.38,0.05c3.71,0,5.46,0,10.07,0
						h14.11c3.85,0,4.64-3.88,3.06-4.24c-7.12-1.57-12.17-3.67-14.37-5.74C102.16,449.93,102.58,449.65,102.13,448.53z"/>
					<path class="st5" d="M108.76,450.89c0.32-0.23,0.51-0.6,0.52-1c0.03-0.21-0.07-0.42-0.25-0.54c-0.96-0.68-4.77,1.11-5.2,1.32
						c-0.05,0.02-0.09,0.05-0.1,0.1c-0.03,0.09,0.01,0.19,0.1,0.22c0.94,0.22,1.9,0.35,2.86,0.37
						C107.41,451.43,108.13,451.26,108.76,450.89z M108.79,449.64c0.08,0.05,0.12,0.14,0.1,0.23c-0.02,0.29-0.15,0.55-0.38,0.73
						c-0.87,0.65-2.96,0.37-4.09,0.16C106.01,450.06,108.26,449.28,108.79,449.64z"/>
					<path class="st5" d="M103.95,451.03c1.15-0.48,3.55-2.36,3.42-3.36c-0.02-0.21-0.17-0.46-0.69-0.53
						c-2.09-0.24-2.99,3.52-2.99,3.68c-0.02,0.06,0,0.13,0.05,0.18c0.04,0.01,0.08,0.01,0.12,0L103.95,451.03z M106.61,447.45
						c0.39,0.04,0.39,0.18,0.39,0.23c0.11,0.61-1.63,2.17-2.88,2.83c0.26-0.88,1.03-3.07,2.35-3.07L106.61,447.45z"/>
					<path class="st34" d="M104.25,450.89c-1.05,0.14-2.03,0.77-2.59,1.67"/>
					<path class="st34" d="M106.15,452.31c-1.05,0.14-2.03,0.77-2.59,1.67"/>
					<path class="st34" d="M108.51,453.51c-1.05,0.14-2.03,0.77-2.59,1.67"/>
				</g>
			</g>
			<polygon class="st24" points="68.39,363.7 68.55,361.22 90.39,361.22 89.98,365.57 			"/>
			<polygon class="st24" points="96.46,361.22 96.67,361.85 95.85,365.99 117.54,368 118.5,361.22 			"/>
		</g>
		<g>
			<path class="st5" d="M66.72,278.86c0,0-8.15,19.65-6.69,33.29c1.46,13.67,4.41,49.06,4.41,49.06h56.84c0,0-1.35-20.59-2.99-30.99
				c-1.64-10.4-5.63-36.06-11.07-46.22C101.77,273.84,66.72,278.86,66.72,278.86z"/>
			<path class="st24" d="M90.69,343.04c-3.71-16.33-10.08-20.82-12.51-23.69l14.49,32.36L90.69,343.04z"/>
		</g>
		<g>
			<g>
				<path class="st5" d="M106.34,227.64c4.4,8.36,6.12,15.67,6.12,15.67l-17.61,3.32c0,0-3.88-18.19-1.98-22.7
					c1.76-4.19,3.02-2.19,9.37,0.14C104,224.71,105.46,225.99,106.34,227.64z"/>
				<path class="st5" d="M60.5,245.16l-5.35-18.23c3.38-5.05,20.11-8.92,20.11-8.92l11.02,0.6c0,0,4.24,0.95,7.86,2.13
					c4.84,1.58,7.46,2.85,8.61,5.54c0,0,0.5,9.93-0.71,22.2c-0.33,3.37,0.42,17.2,1.36,22.99l5.39,14.14
					c-31.28,13.04-45.43-0.46-45.43-0.46c0.91-2.77,3.05-10.02,3.46-12.72c-0.3-3.45-0.46-4.89-1.92-10.93
					C64.63,260.33,60.99,246.29,60.5,245.16z"/>
				<g>
					<path class="st5" d="M56.54,225.46c-3.92,2.14-5.75,16.04-5.75,16.04l13.67,5.92c0,0,5.29-11.91,3.03-17.18
						C65.56,225.78,61.51,222.74,56.54,225.46z"/>
				</g>
			</g>
			<g class="st35">
				<path d="M106.34,227.64c4.4,8.36,6.12,15.67,6.12,15.67l-17.61,3.32c0,0-3.88-18.19-1.98-22.7c1.76-4.19,3.02-2.19,9.37,0.14
					C104,224.71,105.46,225.99,106.34,227.64z"/>
				<path d="M60.5,245.16l-5.35-18.23c3.38-5.05,20.11-8.92,20.11-8.92l11.02,0.6c0,0,4.24,0.95,7.86,2.13
					c4.84,1.58,7.46,2.85,8.61,5.54c0,0,0.5,9.93-0.71,22.2c-0.33,3.37,0.42,17.2,1.36,22.99l5.39,14.14
					c-31.28,13.04-45.43-0.46-45.43-0.46c0.91-2.77,3.05-10.02,3.46-12.72c-0.3-3.45-0.46-4.89-1.92-10.93
					C64.63,260.33,60.99,246.29,60.5,245.16z"/>
				<g>
					<path d="M56.54,225.46c-3.92,2.14-5.75,16.04-5.75,16.04l13.67,5.92c0,0,5.29-11.91,3.03-17.18
						C65.56,225.78,61.51,222.74,56.54,225.46z"/>
				</g>
			</g>
		</g>
		<g>
			<g>
				<path class="st31" d="M110.93,243.6l4.99,12.51l8.63-11.36l6.75,2.82c0,0-5.29,8.88-9.46,17.87c-4.45,9.57-10.45,7.9-14.07,1.21
					c-3.32-6.13-8.86-20.77-8.86-20.77L110.93,243.6z"/>
			</g>
			<path class="st31" d="M136.03,238.8c-0.05,1.18-3.82,7.12-3.82,7.12l-4.5,8.09l-4.67-6.95l2.08-2.99
				c-0.66-0.99-1.5-4.59-1.01-5.74c0.53-1.24,1.76-2.14,1.76-2.14l0.59,0c0,0,0.03,2.43,1.6,2.52c1.47,0.09,4.24-0.36,4.99-0.64
				c1.04-0.38,2.98-2.59,2.98-2.59s0.61,0.45,0.51,1.35c-0.1,0.9-0.66,1.52-0.66,1.52L136.03,238.8z"/>
		</g>
		<g>
			<path class="st36" d="M184.27,221.69c-8.75,11.35-23.78,15.83-37.31,11.13c-3.41-1.18-6.6-2.92-9.45-5.13
				c-14.58-11.27-17.27-32.22-6-46.8c11.27-14.58,32.22-17.27,46.8-6c14.58,11.27,17.27,32.22,6,46.8L184.27,221.69z"/>
			<path class="st37" d="M188.54,188.92l-62.64,8.04c0.06-0.5,0.11-0.98,0.18-1.47c0.48-3.16,1.42-6.22,2.8-9.1l0,0l54.1-6.94
				C185.35,182.26,187.24,185.46,188.54,188.92z"/>
			<path class="st37" d="M189.26,209.65l-58.89,7.54c-2.57-4.25-4.13-9.03-4.55-13.98l64.3-8.25
				C190.97,199.86,190.67,204.88,189.26,209.65z"/>
			<path class="st21" d="M181.02,170.79c-16.36-12.59-39.83-9.54-52.42,6.81c-12.59,16.36-9.54,39.83,6.81,52.42
				c16.32,12.57,39.74,9.56,52.35-6.72c12.64-16.32,9.66-39.8-6.66-52.44C181.08,170.83,181.05,170.81,181.02,170.79z
				 M138.22,226.26c-14.23-10.99-16.85-31.43-5.87-45.66s31.43-16.85,45.66-5.87c14.2,10.97,16.85,31.36,5.92,45.59
				c-10.97,14.24-31.41,16.9-45.65,5.93c-0.02-0.01-0.03-0.02-0.05-0.04L138.22,226.26z"/>
		</g>
		<g>
			<path class="st14" d="M57.54,229.81c0.06,0.19,2.18,12.6,6.48,13.73c2.05,0.54,18.5,0.24,18.5,0.24l1.46-2.29l2.48,2.29h10.45
				l-5.97-10.41l0.61-16.99L57.54,229.81z"/>
			<path class="st21" d="M89.67,199.53c3.69-7.03,1.6-19.74-6.56-22.12c-7.34-2.14-18.97,0.05-18.53,13.19
				c0.44,13.13-2.63,11.76-5.94,20.19c-3.48,8.85-2.46,20.51,3.43,30.05h16.25l2.97-4.27l3.51,4.27h14.11
				c-6.96-9.66-2.8-13.43-1.96-22.2C97.78,209.87,86.49,205.57,89.67,199.53z"/>
			<path class="st5" d="M72.96,179.83c-0.43-1-1.32-1.91-2.41-1.98c-0.56-0.04-1.11,0.15-1.64,0.33l-0.1,0.69
				c-0.43,1.09-1.3,1.93-1.96,2.89c-0.66,0.97-1.09,2.26-0.54,3.28c0.42,0.77,1.3,1.18,2.17,1.27c1.58,0.17,3.21-0.63,4.09-1.95
				S73.59,181.29,72.96,179.83z"/>
			<path class="st21" d="M71.06,184.74c0.54-1.17,0.9-3.85,0.65-4.85c-0.37-1.48-1.4-2.71-2.59-3.66c-0.6-0.48-1.26-0.91-1.99-1.16
				c-1.2-0.41-2.51-0.29-3.75-0.02c-1.4,0.31-2.8,0.85-3.82,1.87c-1.38,1.37-1.87,3.57-1.2,5.4c0.67,1.83,2.46,3.2,4.4,3.36
				c-1.22,0.35-2.37,0.91-3.41,1.64c-0.09,0.06-0.19,0.14-0.2,0.25c-0.01,0.11,0.06,0.2,0.14,0.28c0.64,0.66,1.61,0.9,2.53,0.85
				s1.79-0.37,2.66-0.68c-0.27,0.89-0.53,1.78-0.8,2.66c-0.08,0.27-0.16,0.57-0.09,0.84c0.18,0.62,1.01,0.75,1.64,0.64
				c1.95-0.35,3.54-1.83,4.49-3.56C70.38,187.39,70.77,186.08,71.06,184.74z"/>
		</g>
	</g>
</g>
</svg>
